<svg xmlns="http://www.w3.org/2000/svg" xmlns:v="https://svgstorm.com"
viewBox = "0 0 1000 500"
width="1000"
height="500">
<g fill="None" fill-opacity="0.0" stroke="#000000" stroke-opacity="0.00" stroke-width="0.3"><path d="
M 0.00 500.00 
L 1000.00 500.00
L 1000.00 0.00
L 0.00 0.00
L 0.00 500.00
M 349.00 5.00 
C 360.15 6.73 368.91 18.97 379.70 22.30 C 390.48 25.63 399.88 37.67 411.00 40.00
C 418.79 41.63 430.35 26.24 437.70 23.70 C 445.04 21.16 444.92 15.85 450.25 14.25 C 455.58 12.64 459.90 4.00 464.68 6.34 C 469.45 8.67 467.44 18.59 469.78 23.22 C 472.12 27.85 471.26 37.24 473.78 42.22 C 476.29 47.20 474.51 55.90 477.33 60.67 C 480.15 65.44 477.64 76.10 481.00 80.00
C 483.33 80.00 485.67 80.00 488.00 80.00
C 488.50 80.00 489.50 79.97 490.00 80.00
C 492.21 79.06 494.29 79.30 497.00 79.00
C 500.28 78.63 503.45 78.10 507.00 78.00
C 508.34 77.85 511.09 77.21 513.00 77.00
C 527.05 75.48 540.67 71.88 555.00 71.00
C 555.93 70.94 558.36 69.02 560.00 70.00
C 559.72 71.28 560.76 73.50 559.00 74.00
C 557.11 88.48 547.01 101.07 543.22 115.22 C 539.44 129.38 532.64 143.68 529.00 158.00
C 532.14 159.03 535.28 160.10 538.00 162.00
C 540.03 163.42 541.57 165.07 543.00 167.00
C 548.98 175.04 550.67 184.85 550.00 195.00
C 538.67 195.00 527.33 195.00 516.00 195.00
C 511.83 197.25 512.12 209.84 509.02 213.02 C 505.93 216.21 505.20 230.40 498.00 227.00
C 498.95 229.04 499.92 231.04 501.00 233.00
C 502.28 234.85 505.12 238.56 507.00 240.00
C 514.61 244.96 523.33 245.52 532.00 243.00
C 536.15 241.45 541.50 236.61 544.00 233.00
C 550.54 221.14 550.34 232.81 545.00 240.00
C 543.51 242.01 541.90 243.50 540.00 245.00
C 534.77 249.13 529.73 251.64 523.00 252.00
C 518.97 252.65 514.96 252.64 511.00 252.00
C 504.80 251.66 499.00 249.72 494.00 246.00
C 490.67 243.52 487.44 240.28 485.00 237.00
C 483.48 234.96 482.95 233.21 482.00 231.00
C 469.60 231.40 457.98 234.87 446.00 237.00
C 449.04 242.77 454.39 247.01 457.00 253.00
C 483.78 250.41 513.67 254.62 534.00 272.00
C 537.25 274.77 540.33 277.74 543.00 281.00
C 544.00 282.22 544.96 283.91 546.00 285.00
C 550.04 289.20 553.38 291.53 556.30 296.70 C 559.23 301.86 562.33 306.00 563.98 312.02 C 565.62 318.05 568.19 323.61 568.78 330.22 C 569.37 336.83 568.75 345.10 569.00 352.00 C 569.25 358.90 567.81 366.06 566.67 372.67 C 565.53 379.28 563.68 383.90 561.23 390.23 C 558.78 396.56 558.44 398.83 554.23 405.23 C 550.02 411.63 551.21 411.56 545.08 419.08 C 538.96 426.60 528.61 435.07 520.30 439.31 C 512.00 443.54 512.09 444.13 504.92 446.92 C 497.76 449.72 494.04 450.66 486.99 451.99 C 479.95 453.32 475.25 454.53 467.99 454.99 C 460.73 455.45 452.40 454.72 445.00 455.00 C 437.60 455.28 432.00 452.12 424.33 452.67 C 416.66 453.22 415.71 445.71 412.00 442.00
C 402.68 439.47 401.64 433.06 402.00 424.00
C 402.07 422.16 402.83 420.18 403.00 419.00
C 404.05 392.89 409.16 366.11 415.00 341.00
C 413.91 342.59 411.30 344.47 410.00 346.00
C 406.17 350.48 401.81 355.64 397.00 359.00
C 396.80 359.40 397.00 360.00 397.00 360.00
C 394.82 364.46 389.23 367.54 386.00 371.00
C 385.61 371.64 385.37 372.39 385.00 373.00
C 382.41 377.25 374.65 386.22 371.00 383.00
C 358.78 372.23 354.59 352.00 341.00 343.00
C 330.17 362.77 317.87 384.01 304.00 401.00
C 299.67 380.63 294.75 359.40 291.07 338.93 C 287.39 318.46 279.90 298.68 277.00 279.00
C 270.87 274.65 265.31 266.48 259.75 261.25 C 254.20 256.02 245.92 249.70 243.00 243.00
C 232.62 219.23 229.81 192.41 221.07 167.93 C 212.34 143.44 208.04 116.79 200.00 92.00
C 247.73 62.91 294.37 30.79 344.00 5.00
C 346.29 4.38 346.71 4.26 349.00 5.00
M 596.00 173.00 
C 596.23 172.35 596.69 171.60 597.00 171.00
C 599.42 166.29 603.47 161.78 608.00 159.00
C 617.45 153.21 632.14 155.66 635.00 167.00
C 635.64 169.53 635.72 170.49 635.00 173.00
C 633.15 186.38 611.94 182.22 616.00 169.00
C 616.44 167.58 621.99 161.87 620.00 161.00
C 619.02 160.57 616.08 160.85 615.00 161.00
C 602.69 164.44 594.96 178.96 594.00 191.00
C 592.92 204.65 591.79 222.51 594.00 236.00
C 594.14 236.87 594.67 239.20 595.00 240.00
C 595.51 240.97 599.21 243.64 600.00 244.00
C 604.38 245.56 613.54 243.98 613.00 250.00
C 610.33 250.00 607.67 250.00 605.00 250.00
C 602.67 250.00 600.33 250.00 598.00 250.00
C 590.00 250.00 582.00 250.00 574.00 250.00
C 571.79 250.00 569.16 250.40 567.00 250.00
C 560.52 248.80 564.44 245.40 569.22 245.22 C 574.00 245.04 575.87 241.01 577.00 237.00
C 578.51 227.09 576.82 216.05 577.00 206.00 C 577.18 195.95 578.03 185.00 577.00 175.00
C 575.68 169.06 574.77 165.64 569.00 163.00
C 559.17 159.89 565.10 158.33 572.00 159.00
C 574.00 159.00 576.00 159.00 578.00 159.00
C 579.23 158.89 581.95 158.99 583.00 159.00
C 585.89 158.80 589.20 156.72 592.00 157.00
C 596.31 157.43 592.92 169.82 594.00 175.00
C 595.26 174.92 594.56 172.94 596.00 173.00
M 641.00 159.00 
C 641.83 159.23 643.14 159.00 644.00 159.00
C 651.33 159.00 658.67 159.00 666.00 159.00
C 667.67 159.00 669.33 159.00 671.00 159.00
C 672.44 158.85 676.67 156.31 678.00 159.00
C 678.17 159.35 678.15 161.63 678.00 162.00
C 677.33 163.67 674.45 162.83 673.00 163.00
C 658.35 164.75 672.46 185.32 675.32 194.68 C 678.18 204.04 686.17 218.94 689.00 229.00
C 696.39 211.15 703.59 192.49 710.00 174.00
C 710.35 170.89 710.21 165.69 707.00 164.00
C 706.09 163.63 704.04 163.23 703.00 163.00
C 699.84 162.30 695.54 163.32 697.00 158.00
C 700.50 158.62 705.32 156.73 708.00 159.00
C 711.00 159.00 714.00 159.00 717.00 159.00
C 718.85 158.82 724.33 156.20 726.00 159.00
C 726.59 159.98 725.55 161.93 726.00 163.00
C 711.79 169.34 710.58 188.82 704.22 202.22 C 697.87 215.63 693.77 232.92 687.23 246.23 C 680.69 259.54 679.81 280.73 662.00 283.00
C 659.32 283.48 657.68 283.62 655.00 283.00
C 646.32 280.98 639.98 268.48 651.00 264.00
C 653.90 262.82 656.17 262.95 659.00 264.00
C 666.12 266.63 664.10 271.33 663.00 277.00
C 662.74 278.35 661.56 279.06 664.00 279.00
C 664.37 278.78 665.00 279.00 665.00 279.00
C 666.83 277.83 670.70 274.84 672.00 273.00
C 679.41 260.66 682.46 247.34 675.22 234.78 C 667.99 222.21 666.06 209.84 659.69 197.31 C 653.33 184.77 651.84 170.96 640.00 163.00
C 639.31 162.54 637.75 163.37 637.00 163.00
C 635.77 160.07 638.34 155.82 641.00 159.00
M 735.00 238.00 
C 737.31 239.54 739.54 241.71 741.00 244.00
C 741.77 245.20 742.09 246.04 743.00 247.00
C 747.94 252.22 754.70 257.28 754.98 265.02 C 755.25 272.77 760.60 285.12 757.00 293.00
C 766.76 288.33 781.49 290.75 785.00 302.00
C 788.58 305.83 796.11 307.23 795.78 314.22 C 795.45 321.21 795.08 326.53 789.25 331.25 C 783.41 335.96 777.66 335.44 770.00 336.00 C 762.34 336.56 760.55 328.58 757.00 325.00
C 755.30 324.52 753.53 324.04 752.00 323.00
C 747.13 323.77 746.43 338.28 743.08 343.08 C 739.73 347.87 737.39 357.28 734.08 363.08 C 730.76 368.87 726.93 376.38 723.25 382.25 C 719.56 388.11 716.22 394.40 712.23 400.23 C 708.24 406.06 701.02 412.40 704.00 420.00
C 706.32 419.83 708.69 420.22 711.00 420.00
C 719.57 418.10 731.23 411.83 735.00 403.00
C 735.46 401.46 735.89 397.10 736.00 396.00
C 736.22 385.19 738.67 374.19 740.98 363.98 C 743.28 353.76 744.55 343.37 756.00 341.00
C 759.25 340.33 761.74 340.01 765.00 341.00
C 769.92 342.49 772.02 344.40 772.00 350.00
C 787.97 352.84 779.73 369.42 778.02 381.02 C 776.32 392.63 771.64 407.50 772.00 420.00
C 774.28 419.62 777.18 417.35 779.00 416.00
C 781.48 413.84 784.89 410.42 787.00 408.00
C 792.81 400.18 808.00 384.55 808.00 405.00
C 819.31 401.47 820.75 418.27 815.69 425.69 C 810.63 433.12 806.18 437.45 798.75 443.75 C 791.33 450.06 785.68 452.70 775.00 455.00 C 764.31 457.30 757.65 449.15 751.00 443.00
C 749.68 442.40 748.20 441.79 747.00 441.00
C 742.10 440.94 739.30 448.83 733.92 449.92 C 728.55 451.02 723.40 455.11 717.00 455.00 C 710.60 454.88 703.73 454.74 697.92 452.08 C 692.12 449.41 689.97 445.33 686.00 441.00
C 685.37 440.68 684.58 440.35 684.00 440.00
C 682.39 439.02 680.25 437.30 679.00 436.00
C 673.63 435.59 670.31 444.03 664.75 445.75 C 659.20 447.48 653.39 451.70 646.98 452.98 C 640.56 454.25 631.14 455.61 624.00 455.00 C 616.86 454.39 610.69 452.30 604.31 449.69 C 597.92 447.09 595.12 442.59 591.00 438.00
C 590.01 437.39 588.89 436.67 588.00 436.00
C 585.32 433.97 583.03 431.58 581.00 429.00
C 575.19 421.65 572.36 413.38 572.00 404.00
C 571.44 400.05 571.53 395.86 572.00 392.00
C 572.24 380.07 576.63 368.34 584.00 359.00
C 586.62 355.68 589.73 352.58 593.00 350.00
C 599.73 344.69 607.37 341.33 616.00 341.00
C 619.70 340.47 623.34 340.41 627.00 341.00
C 635.48 341.46 643.07 346.22 647.00 354.00
C 654.58 362.36 661.62 369.30 660.00 382.00 C 658.38 394.70 653.51 399.92 645.30 408.30 C 637.09 416.68 625.13 415.40 617.00 422.00
C 618.93 421.77 620.89 422.94 622.00 423.00
C 636.42 422.18 648.67 414.42 660.00 406.00
C 660.69 405.40 664.82 401.55 665.00 401.00
C 665.45 399.27 665.00 396.80 665.00 395.00
C 664.09 385.57 664.09 374.36 665.00 365.00
C 665.00 359.74 665.41 354.99 666.00 350.00
C 666.20 348.30 666.82 346.12 667.00 345.00
C 668.69 314.10 678.51 274.69 698.00 250.00
C 700.60 246.71 703.68 243.47 707.00 241.00
C 714.88 235.14 726.20 232.14 735.00 238.00 Z"/>
</g>
<g fill="None" fill-opacity="0.0" stroke="#C0C4C5" stroke-opacity="1.00" stroke-width="0.3"><path d="
M 344.00 5.00 
C 345.46 4.82 347.55 4.77 349.00 5.00
C 346.71 4.26 346.29 4.38 344.00 5.00 Z"/>
</g>
<g fill="None" fill-opacity="0.0" stroke="#4F5253" stroke-opacity="1.00" stroke-width="0.3"><path d="
M 243.00 243.00 
C 250.61 256.80 268.94 265.22 278.00 278.00
C 284.89 272.82 287.86 264.39 294.25 258.25 C 300.64 252.11 304.16 243.96 310.25 237.25 C 316.35 230.55 319.80 223.01 325.77 215.77 C 331.74 208.53 336.25 200.25 331.22 191.78 C 326.20 183.30 324.16 175.05 320.23 166.77 C 316.30 158.49 312.57 148.63 309.23 140.77 C 305.89 132.91 297.73 121.41 305.25 116.25 C 312.76 111.08 320.82 107.24 328.08 102.08 C 335.34 96.92 342.03 92.17 349.25 87.25 C 356.46 82.32 363.65 76.67 370.75 71.75 C 377.84 66.82 383.85 59.29 391.25 55.25 C 398.65 51.20 406.15 43.17 411.00 40.00
C 399.88 37.67 390.48 25.63 379.70 22.30 C 368.91 18.97 360.15 6.73 349.00 5.00
C 347.55 4.77 345.46 4.82 344.00 5.00
C 294.37 30.79 247.73 62.91 200.00 92.00
C 208.04 116.79 212.34 143.44 221.07 167.93 C 229.81 192.41 232.62 219.23 243.00 243.00 Z"/>
</g>
<g fill="None" fill-opacity="0.0" stroke="#6C7071" stroke-opacity="1.00" stroke-width="0.3"><path d="
M 411.00 40.00 
C 406.15 43.17 398.65 51.20 391.25 55.25 C 383.85 59.29 377.84 66.82 370.75 71.75 C 363.65 76.67 356.46 82.32 349.25 87.25 C 342.03 92.17 335.34 96.92 328.08 102.08 C 320.82 107.24 312.76 111.08 305.25 116.25 C 297.73 121.41 305.89 132.91 309.23 140.77 C 312.57 148.63 316.30 158.49 320.23 166.77 C 324.16 175.05 326.20 183.30 331.22 191.78 C 336.25 200.25 331.74 208.53 325.77 215.77 C 319.80 223.01 316.35 230.55 310.25 237.25 C 304.16 243.96 300.64 252.11 294.25 258.25 C 287.86 264.39 284.89 272.82 278.00 278.00
C 277.73 278.20 277.21 278.74 277.00 279.00
C 279.90 298.68 287.39 318.46 291.07 338.93 C 294.75 359.40 299.67 380.63 304.00 401.00
C 317.87 384.01 330.17 362.77 341.00 343.00
C 354.59 352.00 358.78 372.23 371.00 383.00
C 374.57 385.02 382.37 375.82 385.00 373.00
C 385.37 372.39 385.61 371.64 386.00 371.00
C 388.41 367.04 393.27 362.60 397.00 360.00
C 397.00 360.00 396.80 359.40 397.00 359.00
C 399.49 353.90 406.14 349.86 410.00 346.00
C 411.30 344.47 413.91 342.59 415.00 341.00
C 417.92 328.46 421.18 322.15 423.93 308.93 C 426.67 295.70 447.20 304.05 454.00 299.00
C 456.11 295.35 460.16 292.84 463.00 290.00
C 465.49 287.51 469.88 280.15 473.00 279.00
C 468.67 279.07 464.33 278.91 460.00 279.00
C 448.65 279.23 429.53 285.47 420.31 289.31 C 411.08 293.14 391.74 309.10 388.00 294.00
C 385.94 299.57 376.65 302.80 373.25 308.25 C 369.84 313.70 362.42 317.00 358.25 322.25 C 354.08 327.49 347.73 332.38 343.00 337.00
C 342.64 323.04 341.54 308.88 341.00 295.00 C 340.46 281.12 340.16 266.59 339.00 253.00 C 337.84 239.41 338.96 224.05 337.00 211.00 C 335.05 197.95 348.71 193.94 356.25 186.25 C 363.78 178.55 372.57 173.79 380.00 166.00
C 383.79 162.76 388.42 159.94 392.00 157.00
C 421.52 132.75 449.85 106.56 480.00 83.00
C 477.04 99.03 472.73 115.22 469.01 131.01 C 465.29 146.80 459.86 162.23 457.22 178.22 C 454.59 194.21 451.16 212.57 448.00 228.00 C 444.85 243.43 430.87 248.85 422.00 261.00
C 432.65 257.12 446.03 254.06 457.00 253.00
C 454.39 247.01 449.04 242.77 446.00 237.00
C 457.98 234.87 469.60 231.40 482.00 231.00
C 468.05 198.67 484.82 143.46 529.00 158.00
C 532.64 143.68 539.44 129.38 543.22 115.22 C 547.01 101.07 557.11 88.48 559.00 74.00
C 558.36 70.59 558.36 71.52 555.00 71.00
C 540.67 71.88 527.05 75.48 513.00 77.00
C 511.30 77.35 509.28 77.94 507.00 78.00
C 503.45 78.10 500.28 78.63 497.00 79.00
C 494.98 79.41 492.67 80.17 490.00 80.00
C 489.50 79.97 488.50 80.00 488.00 80.00
C 486.11 80.80 482.80 82.09 481.00 80.00
C 477.64 76.10 480.15 65.44 477.33 60.67 C 474.51 55.90 476.29 47.20 473.78 42.22 C 471.26 37.24 472.12 27.85 469.78 23.22 C 467.44 18.59 469.45 8.67 464.68 6.34 C 459.90 4.00 455.58 12.64 450.25 14.25 C 444.92 15.85 445.04 21.16 437.70 23.70 C 430.35 26.24 418.79 41.63 411.00 40.00 Z"/>
</g>
<g fill="None" fill-opacity="0.0" stroke="#C0C4C5" stroke-opacity="1.00" stroke-width="0.3"><path d="
M 555.00 71.00 
C 558.36 71.52 558.36 70.59 559.00 74.00
C 560.76 73.50 559.72 71.28 560.00 70.00
C 558.36 69.02 555.93 70.94 555.00 71.00 Z"/>
</g>
<g fill="None" fill-opacity="0.0" stroke="#C0C4C5" stroke-opacity="1.00" stroke-width="0.3"><path d="
M 507.00 78.00 
C 509.28 77.94 511.30 77.35 513.00 77.00
C 511.09 77.21 508.34 77.85 507.00 78.00 Z"/>
</g>
<g fill="None" fill-opacity="0.0" stroke="#C0C4C5" stroke-opacity="1.00" stroke-width="0.3"><path d="
M 490.00 80.00 
C 492.67 80.17 494.98 79.41 497.00 79.00
C 494.29 79.30 492.21 79.06 490.00 80.00 Z"/>
</g>
<g fill="None" fill-opacity="0.0" stroke="#C0C4C5" stroke-opacity="1.00" stroke-width="0.3"><path d="
M 488.00 80.00 
C 485.67 80.00 483.33 80.00 481.00 80.00
C 482.80 82.09 486.11 80.80 488.00 80.00 Z"/>
</g>
<g fill="None" fill-opacity="0.0" stroke="#303233" stroke-opacity="1.00" stroke-width="0.3"><path d="
M 392.00 157.00 
C 390.88 164.28 399.49 172.77 400.78 180.22 C 402.06 187.68 407.39 196.02 409.32 203.68 C 411.25 211.33 416.60 219.02 418.00 227.00
C 421.57 222.03 423.44 215.78 425.78 209.78 C 428.11 203.77 430.50 197.93 432.78 191.78 C 435.06 185.62 437.39 180.11 439.78 173.78 C 442.16 167.45 444.02 162.42 446.77 155.77 C 449.52 149.13 451.28 143.45 450.67 135.33 C 450.06 127.21 436.01 130.51 436.00 124.00
C 446.79 124.35 458.32 126.45 469.00 124.00
C 465.27 130.85 456.89 136.54 454.68 145.68 C 452.47 154.81 446.96 162.24 444.23 171.23 C 441.50 180.22 437.37 189.26 434.08 198.08 C 430.78 206.89 427.34 215.21 424.07 224.07 C 420.80 232.94 417.09 242.03 414.00 251.00
C 406.33 246.11 404.12 233.90 400.23 224.77 C 396.34 215.64 392.82 205.17 389.22 195.78 C 385.63 186.38 380.17 175.53 380.00 166.00
C 372.57 173.79 363.78 178.55 356.25 186.25 C 348.71 193.94 335.05 197.95 337.00 211.00 C 338.96 224.05 337.84 239.41 339.00 253.00 C 340.16 266.59 340.46 281.12 341.00 295.00 C 341.54 308.88 342.64 323.04 343.00 337.00
C 347.73 332.38 354.08 327.49 358.25 322.25 C 362.42 317.00 369.84 313.70 373.25 308.25 C 376.65 302.80 385.94 299.57 388.00 294.00
C 383.25 274.82 408.72 265.84 422.00 261.00
C 430.87 248.85 444.85 243.43 448.00 228.00 C 451.16 212.57 454.59 194.21 457.22 178.22 C 459.86 162.23 465.29 146.80 469.01 131.01 C 472.73 115.22 477.04 99.03 480.00 83.00
C 449.85 106.56 421.52 132.75 392.00 157.00 Z"/>
</g>
<g fill="None" fill-opacity="0.0" stroke="#000000" stroke-opacity="1.00" stroke-width="0.3"><path d="
M 392.00 157.00 
C 388.42 159.94 383.79 162.76 380.00 166.00
C 380.17 175.53 385.63 186.38 389.22 195.78 C 392.82 205.17 396.34 215.64 400.23 224.77 C 404.12 233.90 406.33 246.11 414.00 251.00
C 417.09 242.03 420.80 232.94 424.07 224.07 C 427.34 215.21 430.78 206.89 434.08 198.08 C 437.37 189.26 441.50 180.22 444.23 171.23 C 446.96 162.24 452.47 154.81 454.68 145.68 C 456.89 136.54 465.27 130.85 469.00 124.00
C 458.32 126.45 446.79 124.35 436.00 124.00
C 436.01 130.51 450.06 127.21 450.67 135.33 C 451.28 143.45 449.52 149.13 446.77 155.77 C 444.02 162.42 442.16 167.45 439.78 173.78 C 437.39 180.11 435.06 185.62 432.78 191.78 C 430.50 197.93 428.11 203.77 425.78 209.78 C 423.44 215.78 421.57 222.03 418.00 227.00
C 416.60 219.02 411.25 211.33 409.32 203.68 C 407.39 196.02 402.06 187.68 400.78 180.22 C 399.49 172.77 390.88 164.28 392.00 157.00 Z"/>
</g>
<g fill="None" fill-opacity="0.0" stroke="#000000" stroke-opacity="1.00" stroke-width="0.3"><path d="
M 482.00 231.00 
C 482.95 233.21 483.48 234.96 485.00 237.00
C 487.46 239.82 491.23 243.59 494.00 246.00
C 499.00 249.72 504.80 251.66 511.00 252.00
C 514.92 252.21 519.08 252.21 523.00 252.00
C 529.73 251.64 534.77 249.13 540.00 245.00
C 541.48 243.64 543.74 241.45 545.00 240.00
C 550.34 232.81 550.54 221.14 544.00 233.00
C 541.28 237.93 537.37 241.44 532.00 243.00
C 523.33 245.52 514.61 244.96 507.00 240.00
C 504.12 238.12 502.58 235.86 501.00 233.00
C 499.92 231.04 498.95 229.04 498.00 227.00
C 493.83 218.08 494.74 212.33 494.00 202.00 C 493.26 191.67 507.92 195.00 516.00 195.00
C 527.33 195.00 538.67 195.00 550.00 195.00
C 550.67 184.85 548.98 175.04 543.00 167.00
C 541.78 165.61 539.36 163.12 538.00 162.00
C 535.28 160.10 532.14 159.03 529.00 158.00
C 484.82 143.46 468.05 198.67 482.00 231.00
M 529.00 168.00 
C 530.47 171.36 531.11 175.41 532.00 179.00
C 532.44 180.77 532.95 182.66 533.00 185.00
C 533.03 186.32 533.64 189.89 533.00 191.00
C 531.54 193.55 519.95 192.00 517.00 192.00
C 509.41 192.00 501.16 192.80 494.00 191.00
C 491.63 172.95 514.78 145.95 529.00 168.00 Z"/>
</g>
<g fill="None" fill-opacity="0.0" stroke="#C0C4C5" stroke-opacity="1.00" stroke-width="0.3"><path d="
M 592.00 157.00 
C 596.39 159.80 590.79 173.63 593.00 178.00
C 594.92 177.15 595.78 174.95 596.00 173.00
C 594.56 172.94 595.26 174.92 594.00 175.00
C 592.92 169.82 596.31 157.43 592.00 157.00 Z"/>
</g>
<g fill="None" fill-opacity="0.0" stroke="#000000" stroke-opacity="1.00" stroke-width="0.3"><path d="
M 608.00 159.00 
C 604.19 161.75 599.77 167.54 597.00 171.00
C 596.69 171.60 596.23 172.35 596.00 173.00
C 595.78 174.95 594.92 177.15 593.00 178.00
C 590.79 173.63 596.39 159.80 592.00 157.00
C 589.20 156.72 585.89 158.80 583.00 159.00
C 581.35 159.11 579.65 159.00 578.00 159.00
C 576.00 159.00 574.00 159.00 572.00 159.00
C 569.33 159.00 566.67 159.00 564.00 159.00
C 562.56 163.32 567.82 160.81 569.00 163.00
C 574.77 165.64 575.68 169.06 577.00 175.00
C 579.04 184.19 578.20 196.03 578.00 206.00 C 577.80 215.97 579.55 227.97 577.00 237.00
C 575.87 241.01 574.00 245.04 569.22 245.22 C 564.44 245.40 560.52 248.80 567.00 250.00
C 568.00 250.10 572.17 249.04 574.00 249.00
C 581.98 248.84 590.02 248.84 598.00 249.00
C 600.41 249.05 603.30 249.84 605.00 250.00
C 607.67 250.00 610.33 250.00 613.00 250.00
C 613.54 243.98 604.38 245.56 600.00 244.00
C 597.96 243.28 595.93 242.27 595.00 240.00
C 594.67 239.20 594.14 236.87 594.00 236.00
C 590.40 224.43 591.74 202.70 594.00 191.00
C 594.96 178.96 602.69 164.44 615.00 161.00
C 617.13 160.40 617.79 159.60 620.00 161.00
C 623.85 163.43 617.09 166.36 616.00 169.00
C 611.94 182.22 633.15 186.38 635.00 173.00
C 635.25 171.22 635.22 168.79 635.00 167.00
C 632.14 155.66 617.45 153.21 608.00 159.00 Z"/>
</g>
<g fill="None" fill-opacity="0.0" stroke="#C0C4C5" stroke-opacity="1.00" stroke-width="0.3"><path d="
M 569.00 163.00 
C 567.82 160.81 562.56 163.32 564.00 159.00
C 566.67 159.00 569.33 159.00 572.00 159.00
C 565.10 158.33 559.17 159.89 569.00 163.00 Z"/>
</g>
<g fill="None" fill-opacity="0.0" stroke="#C0C4C5" stroke-opacity="1.00" stroke-width="0.3"><path d="
M 578.00 159.00 
C 579.65 159.00 581.35 159.11 583.00 159.00
C 581.95 158.99 579.23 158.89 578.00 159.00 Z"/>
</g>
<g fill="None" fill-opacity="0.0" stroke="#C0C4C5" stroke-opacity="1.00" stroke-width="0.3"><path d="
M 640.00 163.00 
C 638.87 161.92 637.43 161.11 638.00 159.00
C 639.00 159.00 640.00 159.00 641.00 159.00
C 638.34 155.82 635.77 160.07 637.00 163.00
C 637.75 163.37 639.31 162.54 640.00 163.00 Z"/>
</g>
<g fill="None" fill-opacity="0.0" stroke="#C0C4C5" stroke-opacity="1.00" stroke-width="0.3"><path d="
M 671.00 159.00 
C 673.33 159.00 675.67 159.00 678.00 159.00
C 676.67 156.31 672.44 158.85 671.00 159.00 Z"/>
</g>
<g fill="None" fill-opacity="0.0" stroke="#C0C4C5" stroke-opacity="1.00" stroke-width="0.3"><path d="
M 703.00 163.00 
C 701.16 162.35 697.10 162.30 698.00 159.00
C 701.33 159.00 704.67 159.00 708.00 159.00
C 705.32 156.73 700.50 158.62 697.00 158.00
C 695.54 163.32 699.84 162.30 703.00 163.00 Z"/>
</g>
<g fill="None" fill-opacity="0.0" stroke="#C0C4C5" stroke-opacity="1.00" stroke-width="0.3"><path d="
M 717.00 159.00 
C 720.00 159.00 723.00 159.00 726.00 159.00
C 724.33 156.20 718.85 158.82 717.00 159.00 Z"/>
</g>
<g fill="None" fill-opacity="0.0" stroke="#6C7071" stroke-opacity="1.00" stroke-width="0.3"><path d="
M 597.00 171.00 
C 599.77 167.54 604.19 161.75 608.00 159.00
C 603.47 161.78 599.42 166.29 597.00 171.00 Z"/>
</g>
<g fill="None" fill-opacity="0.0" stroke="#000000" stroke-opacity="1.00" stroke-width="0.3"><path d="
M 640.00 163.00 
C 651.84 170.96 653.33 184.77 659.69 197.31 C 666.06 209.84 667.99 222.21 675.22 234.78 C 682.46 247.34 679.41 260.66 672.00 273.00
C 670.49 275.52 667.82 278.45 665.00 279.00
C 665.00 279.00 664.37 278.78 664.00 279.00
C 662.90 279.66 661.69 280.46 660.00 280.00
C 660.67 278.80 661.64 277.42 663.00 277.00
C 664.10 271.33 666.12 266.63 659.00 264.00
C 657.08 263.57 652.91 263.52 651.00 264.00
C 639.98 268.48 646.32 280.98 655.00 283.00
C 657.22 283.23 659.77 283.14 662.00 283.00
C 679.81 280.73 680.69 259.54 687.23 246.23 C 693.77 232.92 697.87 215.63 704.22 202.22 C 710.58 188.82 711.79 169.34 726.00 163.00
C 725.55 161.93 726.59 159.98 726.00 159.00
C 723.00 159.00 720.00 159.00 717.00 159.00
C 714.00 159.00 711.00 159.00 708.00 159.00
C 704.67 159.00 701.33 159.00 698.00 159.00
C 697.10 162.30 701.16 162.35 703.00 163.00
C 704.04 163.23 706.09 163.63 707.00 164.00
C 711.92 166.01 710.92 170.47 710.00 174.00
C 703.59 192.49 696.39 211.15 689.00 229.00
C 686.17 218.94 678.18 204.04 675.32 194.68 C 672.46 185.32 658.35 164.75 673.00 163.00
C 672.91 163.02 678.18 161.77 678.00 162.00
C 678.15 161.63 678.17 159.35 678.00 159.00
C 675.67 159.00 673.33 159.00 671.00 159.00
C 669.33 159.00 667.67 159.00 666.00 159.00
C 659.16 159.73 650.81 160.50 644.00 159.00
C 643.14 159.00 641.83 159.23 641.00 159.00
C 640.00 159.00 639.00 159.00 638.00 159.00
C 637.43 161.11 638.87 161.92 640.00 163.00 Z"/>
</g>
<g fill="None" fill-opacity="0.0" stroke="#6C7071" stroke-opacity="1.00" stroke-width="0.3"><path d="
M 666.00 159.00 
C 658.67 159.00 651.33 159.00 644.00 159.00
C 650.81 160.50 659.16 159.73 666.00 159.00 Z"/>
</g>
<g fill="None" fill-opacity="0.0" stroke="#6C7071" stroke-opacity="1.00" stroke-width="0.3"><path d="
M 517.00 192.00 
C 516.96 192.00 517.00 191.00 517.00 191.00
C 521.82 183.36 523.01 173.34 526.00 165.00
C 527.26 165.56 527.25 167.85 529.00 168.00
C 514.78 145.95 491.63 172.95 494.00 191.00
C 501.16 192.80 509.41 192.00 517.00 192.00 Z"/>
</g>
<g fill="None" fill-opacity="0.0" stroke="#4F5253" stroke-opacity="1.00" stroke-width="0.3"><path d="
M 615.00 161.00 
C 616.08 160.85 619.02 160.57 620.00 161.00
C 617.79 159.60 617.13 160.40 615.00 161.00 Z"/>
</g>
<g fill="None" fill-opacity="0.0" stroke="#6C7071" stroke-opacity="1.00" stroke-width="0.3"><path d="
M 616.00 169.00 
C 617.09 166.36 623.85 163.43 620.00 161.00
C 621.99 161.87 616.44 167.58 616.00 169.00 Z"/>
</g>
<g fill="None" fill-opacity="0.0" stroke="#C0C4C5" stroke-opacity="1.00" stroke-width="0.3"><path d="
M 543.00 167.00 
C 541.57 165.07 540.03 163.42 538.00 162.00
C 539.36 163.12 541.78 165.61 543.00 167.00 Z"/>
</g>
<g fill="None" fill-opacity="0.0" stroke="#C0C4C5" stroke-opacity="1.00" stroke-width="0.3"><path d="
M 673.00 163.00 
C 674.45 162.83 677.33 163.67 678.00 162.00
C 678.18 161.77 672.91 163.02 673.00 163.00 Z"/>
</g>
<g fill="None" fill-opacity="0.0" stroke="#C0C4C5" stroke-opacity="1.00" stroke-width="0.3"><path d="
M 710.00 174.00 
C 710.92 170.47 711.92 166.01 707.00 164.00
C 710.21 165.69 710.35 170.89 710.00 174.00 Z"/>
</g>
<g fill="None" fill-opacity="0.0" stroke="#000000" stroke-opacity="0.00" stroke-width="0.3"><path d="
M 517.00 191.00 
C 522.29 190.52 527.70 191.36 533.00 191.00
C 533.64 189.89 533.03 186.32 533.00 185.00
C 532.86 183.73 532.25 180.81 532.00 179.00
C 531.11 175.41 530.47 171.36 529.00 168.00
C 527.25 167.85 527.26 165.56 526.00 165.00
C 523.01 173.34 521.82 183.36 517.00 191.00 Z"/>
</g>
<g fill="None" fill-opacity="0.0" stroke="#C0C4C5" stroke-opacity="1.00" stroke-width="0.3"><path d="
M 635.00 173.00 
C 635.72 170.49 635.64 169.53 635.00 167.00
C 635.22 168.79 635.25 171.22 635.00 173.00 Z"/>
</g>
<g fill="None" fill-opacity="0.0" stroke="#6C7071" stroke-opacity="1.00" stroke-width="0.3"><path d="
M 577.00 237.00 
C 579.55 227.97 577.80 215.97 578.00 206.00 C 578.20 196.03 579.04 184.19 577.00 175.00
C 578.03 185.00 577.18 195.95 577.00 206.00 C 576.82 216.05 578.51 227.09 577.00 237.00 Z"/>
</g>
<g fill="None" fill-opacity="0.0" stroke="#C0C4C5" stroke-opacity="1.00" stroke-width="0.3"><path d="
M 533.00 185.00 
C 532.95 182.66 532.44 180.77 532.00 179.00
C 532.25 180.81 532.86 183.73 533.00 185.00 Z"/>
</g>
<g fill="None" fill-opacity="0.0" stroke="#C0C4C5" stroke-opacity="1.00" stroke-width="0.3"><path d="
M 517.00 192.00 
C 519.95 192.00 531.54 193.55 533.00 191.00
C 527.70 191.36 522.29 190.52 517.00 191.00
C 517.00 191.00 516.96 192.00 517.00 192.00 Z"/>
</g>
<g fill="None" fill-opacity="0.0" stroke="#6C7071" stroke-opacity="1.00" stroke-width="0.3"><path d="
M 594.00 236.00 
C 591.79 222.51 592.92 204.65 594.00 191.00
C 591.74 202.70 590.40 224.43 594.00 236.00 Z"/>
</g>
<g fill="None" fill-opacity="0.0" stroke="#6C7071" stroke-opacity="1.00" stroke-width="0.3"><path d="
M 498.00 227.00 
C 505.20 230.40 505.93 216.21 509.02 213.02 C 512.12 209.84 511.83 197.25 516.00 195.00
C 507.92 195.00 493.26 191.67 494.00 202.00 C 494.74 212.33 493.83 218.08 498.00 227.00 Z"/>
</g>
<g fill="None" fill-opacity="0.0" stroke="#6C7071" stroke-opacity="1.00" stroke-width="0.3"><path d="
M 507.00 240.00 
C 505.12 238.56 502.28 234.85 501.00 233.00
C 502.58 235.86 504.12 238.12 507.00 240.00 Z"/>
</g>
<g fill="None" fill-opacity="0.0" stroke="#6C7071" stroke-opacity="1.00" stroke-width="0.3"><path d="
M 532.00 243.00 
C 537.37 241.44 541.28 237.93 544.00 233.00
C 541.50 236.61 536.15 241.45 532.00 243.00 Z"/>
</g>
<g fill="None" fill-opacity="0.0" stroke="#4BAF4D" stroke-opacity="1.00" stroke-width="0.3"><path d="
M 707.00 241.00 
C 704.11 243.52 700.57 247.22 698.00 250.00
C 678.51 274.69 668.69 314.10 667.00 345.00
C 666.89 347.01 666.33 348.58 666.00 350.00
C 665.41 354.99 665.00 359.74 665.00 365.00
C 665.00 375.00 665.00 385.00 665.00 395.00
C 665.00 396.80 665.45 399.27 665.00 401.00
C 664.47 403.04 661.50 404.89 660.00 406.00
C 648.67 414.42 636.42 422.18 622.00 423.00
C 619.53 423.14 617.80 422.49 616.00 422.00
C 610.91 421.17 603.39 417.98 603.00 412.00
C 630.19 410.07 661.26 383.54 647.00 354.00
C 643.07 346.22 635.48 341.46 627.00 341.00
C 623.39 340.80 619.61 340.86 616.00 341.00
C 607.37 341.33 599.73 344.69 593.00 350.00
C 590.11 352.67 586.62 356.16 584.00 359.00
C 576.63 368.34 572.24 380.07 572.00 392.00
C 571.92 395.98 571.85 400.02 572.00 404.00
C 572.36 413.38 575.19 421.65 581.00 429.00
C 583.03 431.20 585.85 434.03 588.00 436.00
C 588.89 436.67 590.01 437.39 591.00 438.00
C 617.03 454.08 651.01 442.21 672.00 424.00
C 673.37 426.69 674.65 429.31 676.00 432.00
C 677.96 434.51 681.68 437.83 684.00 440.00
C 684.58 440.35 685.37 440.68 686.00 441.00
C 704.25 450.33 724.61 442.62 739.00 430.00
C 740.96 434.11 743.25 438.50 747.00 441.00
C 748.20 441.79 749.68 442.40 751.00 443.00
C 771.88 452.48 808.00 427.79 808.00 405.00
C 808.00 384.55 792.81 400.18 787.00 408.00
C 784.77 411.00 781.95 413.81 779.00 416.00
C 777.18 417.35 774.28 419.62 772.00 420.00
C 756.19 422.64 763.91 397.19 764.93 387.93 C 765.94 378.67 771.97 360.16 772.00 350.00
C 772.02 344.40 769.92 342.49 765.00 341.00
C 762.34 340.55 758.69 340.76 756.00 341.00
C 744.55 343.37 743.28 353.76 740.98 363.98 C 738.67 374.19 736.22 385.19 736.00 396.00
C 735.94 398.79 735.93 400.82 735.00 403.00
C 731.23 411.83 719.57 418.10 711.00 420.00
C 708.24 420.61 706.78 420.88 704.00 420.00
C 688.96 415.24 693.91 400.55 701.75 391.75 C 709.60 382.96 713.42 371.98 719.77 361.77 C 726.13 351.56 730.76 339.85 735.32 328.32 C 739.88 316.79 744.54 303.92 745.99 290.99 C 747.44 278.06 749.24 259.01 743.00 247.00
C 742.09 246.04 741.77 245.20 741.00 244.00
C 739.75 242.40 736.55 239.21 735.00 238.00
C 726.20 232.14 714.88 235.14 707.00 241.00
M 725.00 270.00 
C 725.39 273.23 725.30 276.87 725.00 280.00
C 725.00 303.44 715.05 328.44 705.00 349.00
C 701.30 356.57 696.97 364.48 692.00 371.00
C 691.57 361.01 692.78 350.50 694.00 341.00 C 695.22 331.49 696.36 322.53 698.33 313.33 C 700.30 304.12 701.84 296.51 704.33 287.33 C 706.82 278.15 709.34 273.46 712.92 263.92 C 716.51 254.39 728.30 258.39 725.00 270.00
M 626.00 373.00 
C 625.86 375.67 625.31 378.70 624.00 381.00
C 622.56 383.54 619.48 386.59 617.00 388.00
C 615.62 388.78 613.54 389.20 612.00 390.00
C 608.05 392.05 603.65 394.11 599.00 395.00
C 597.87 384.82 601.42 376.80 606.75 368.75 C 612.09 360.71 628.39 360.18 626.00 373.00 Z"/>
</g>
<g fill="None" fill-opacity="0.0" stroke="#6C7071" stroke-opacity="1.00" stroke-width="0.3"><path d="
M 494.00 246.00 
C 491.23 243.59 487.46 239.82 485.00 237.00
C 487.44 240.28 490.67 243.52 494.00 246.00 Z"/>
</g>
<g fill="None" fill-opacity="0.0" stroke="#7BB97E" stroke-opacity="1.00" stroke-width="0.3"><path d="
M 741.00 244.00 
C 739.54 241.71 737.31 239.54 735.00 238.00
C 736.55 239.21 739.75 242.40 741.00 244.00 Z"/>
</g>
<g fill="None" fill-opacity="0.0" stroke="#C0C4C5" stroke-opacity="1.00" stroke-width="0.3"><path d="
M 540.00 245.00 
C 541.90 243.50 543.51 242.01 545.00 240.00
C 543.74 241.45 541.48 243.64 540.00 245.00 Z"/>
</g>
<g fill="None" fill-opacity="0.0" stroke="#C0C4C5" stroke-opacity="1.00" stroke-width="0.3"><path d="
M 600.00 244.00 
C 599.21 243.64 595.51 240.97 595.00 240.00
C 595.93 242.27 597.96 243.28 600.00 244.00 Z"/>
</g>
<g fill="None" fill-opacity="0.0" stroke="#7BB97E" stroke-opacity="1.00" stroke-width="0.3"><path d="
M 698.00 250.00 
C 700.57 247.22 704.11 243.52 707.00 241.00
C 703.68 243.47 700.60 246.71 698.00 250.00 Z"/>
</g>
<g fill="None" fill-opacity="0.0" stroke="#C0C4C5" stroke-opacity="1.00" stroke-width="0.3"><path d="
M 277.00 279.00 
C 277.21 278.74 277.73 278.20 278.00 278.00
C 268.94 265.22 250.61 256.80 243.00 243.00
C 245.92 249.70 254.20 256.02 259.75 261.25 C 265.31 266.48 270.87 274.65 277.00 279.00 Z"/>
</g>
<g fill="None" fill-opacity="0.0" stroke="#C0C4C5" stroke-opacity="0.49" stroke-width="0.3"><path d="
M 704.00 420.00 
C 701.02 412.40 708.24 406.06 712.23 400.23 C 716.22 394.40 719.56 388.11 723.25 382.25 C 726.93 376.38 730.76 368.87 734.08 363.08 C 737.39 357.28 739.73 347.87 743.08 343.08 C 746.43 338.28 747.13 323.77 752.00 323.00
C 740.73 315.32 745.94 298.29 757.00 293.00
C 760.60 285.12 755.25 272.77 754.98 265.02 C 754.70 257.28 747.94 252.22 743.00 247.00
C 749.24 259.01 747.44 278.06 745.99 290.99 C 744.54 303.92 739.88 316.79 735.32 328.32 C 730.76 339.85 726.13 351.56 719.77 361.77 C 713.42 371.98 709.60 382.96 701.75 391.75 C 693.91 400.55 688.96 415.24 704.00 420.00 Z"/>
</g>
<g fill="None" fill-opacity="0.0" stroke="#4F5253" stroke-opacity="1.00" stroke-width="0.3"><path d="
M 567.00 250.00 
C 569.16 250.40 571.79 250.00 574.00 250.00
C 574.07 249.99 574.00 249.00 574.00 249.00
C 572.17 249.04 568.00 250.10 567.00 250.00 Z"/>
</g>
<g fill="None" fill-opacity="0.0" stroke="#C0C4C5" stroke-opacity="1.00" stroke-width="0.3"><path d="
M 574.00 250.00 
C 582.00 250.00 590.00 250.00 598.00 250.00
C 597.93 249.99 598.00 249.00 598.00 249.00
C 590.02 248.84 581.98 248.84 574.00 249.00
C 574.00 249.00 574.07 249.99 574.00 250.00 Z"/>
</g>
<g fill="None" fill-opacity="0.0" stroke="#6C7071" stroke-opacity="1.00" stroke-width="0.3"><path d="
M 598.00 250.00 
C 600.33 250.00 602.67 250.00 605.00 250.00
C 603.30 249.84 600.41 249.05 598.00 249.00
C 598.00 249.00 597.93 249.99 598.00 250.00 Z"/>
</g>
<g fill="None" fill-opacity="0.0" stroke="#C0C4C5" stroke-opacity="1.00" stroke-width="0.3"><path d="
M 523.00 252.00 
C 519.08 252.21 514.92 252.21 511.00 252.00
C 514.96 252.64 518.97 252.65 523.00 252.00 Z"/>
</g>
<g fill="None" fill-opacity="0.0" stroke="#4BAF4D" stroke-opacity="1.00" stroke-width="0.3"><path d="
M 422.00 261.00 
C 408.72 265.84 383.25 274.82 388.00 294.00
C 391.74 309.10 411.08 293.14 420.31 289.31 C 429.53 285.47 448.65 279.23 460.00 279.00
C 464.16 278.50 468.93 278.61 473.00 279.00
C 490.14 280.66 507.61 284.06 518.00 300.00
C 522.51 306.91 525.43 316.65 526.00 325.00
C 527.08 331.05 526.72 338.05 526.00 344.00
C 525.24 382.25 500.37 415.83 461.00 419.00
C 459.37 419.29 457.23 419.94 455.00 420.00
C 451.71 420.09 448.29 420.18 445.00 420.00
C 441.47 419.81 438.57 419.00 435.00 419.00
C 438.09 381.43 445.27 344.20 456.00 309.00
C 456.09 306.18 455.07 302.41 452.00 302.00
C 452.30 300.75 453.83 300.29 454.00 299.00
C 447.20 304.05 426.67 295.70 423.93 308.93 C 421.18 322.15 417.92 328.46 415.00 341.00
C 409.16 366.11 404.05 392.89 403.00 419.00
C 402.93 420.84 402.17 422.82 402.00 424.00
C 401.64 433.06 402.68 439.47 412.00 442.00
C 452.62 453.01 508.15 442.22 535.25 409.25 C 562.35 376.27 570.79 320.84 546.00 285.00
C 544.96 283.91 544.00 282.22 543.00 281.00
C 540.17 278.06 536.85 274.85 534.00 272.00
C 513.67 254.62 483.78 250.41 457.00 253.00
C 446.03 254.06 432.65 257.12 422.00 261.00 Z"/>
</g>
<g fill="None" fill-opacity="0.0" stroke="#C0C4C5" stroke-opacity="0.49" stroke-width="0.3"><path d="
M 705.00 349.00 
C 707.49 337.31 706.28 319.27 711.33 307.33 C 716.38 295.39 715.78 280.43 725.00 271.00
C 725.00 270.50 725.00 270.00 725.00 270.00
C 728.30 258.39 716.51 254.39 712.92 263.92 C 709.34 273.46 706.82 278.15 704.33 287.33 C 701.84 296.51 700.30 304.12 698.33 313.33 C 696.36 322.53 695.22 331.49 694.00 341.00 C 692.78 350.50 691.57 361.01 692.00 371.00
C 696.97 364.48 701.30 356.57 705.00 349.00 Z"/>
</g>
<g fill="None" fill-opacity="0.0" stroke="#6C7071" stroke-opacity="1.00" stroke-width="0.3"><path d="
M 651.00 264.00 
C 652.91 263.52 657.08 263.57 659.00 264.00
C 656.17 262.95 653.90 262.82 651.00 264.00 Z"/>
</g>
<g fill="None" fill-opacity="0.0" stroke="#7BB97E" stroke-opacity="0.59" stroke-width="0.3"><path d="
M 725.00 271.00 
C 725.00 274.00 725.00 277.00 725.00 280.00
C 725.30 276.87 725.39 273.23 725.00 270.00
C 725.00 270.00 725.00 270.50 725.00 271.00 Z"/>
</g>
<g fill="None" fill-opacity="0.0" stroke="#000000" stroke-opacity="0.00" stroke-width="0.3"><path d="
M 705.00 349.00 
C 715.05 328.44 725.00 303.44 725.00 280.00
C 725.00 277.00 725.00 274.00 725.00 271.00
C 715.78 280.43 716.38 295.39 711.33 307.33 C 706.28 319.27 707.49 337.31 705.00 349.00 Z"/>
</g>
<g fill="None" fill-opacity="0.0" stroke="#7BB97E" stroke-opacity="1.00" stroke-width="0.3"><path d="
M 543.00 281.00 
C 540.33 277.74 537.25 274.77 534.00 272.00
C 536.85 274.85 540.17 278.06 543.00 281.00 Z"/>
</g>
<g fill="None" fill-opacity="0.0" stroke="#C0C4C5" stroke-opacity="1.00" stroke-width="0.3"><path d="
M 665.00 279.00 
C 667.82 278.45 670.49 275.52 672.00 273.00
C 670.70 274.84 666.83 277.83 665.00 279.00 Z"/>
</g>
<g fill="None" fill-opacity="0.0" stroke="#C0C4C5" stroke-opacity="1.00" stroke-width="0.3"><path d="
M 664.00 279.00 
C 661.56 279.06 662.74 278.35 663.00 277.00
C 661.64 277.42 660.67 278.80 660.00 280.00
C 661.69 280.46 662.90 279.66 664.00 279.00 Z"/>
</g>
<g fill="None" fill-opacity="0.0" stroke="#7BB97E" stroke-opacity="1.00" stroke-width="0.3"><path d="
M 460.00 279.00 
C 464.33 278.91 468.67 279.07 473.00 279.00
C 468.93 278.61 464.16 278.50 460.00 279.00 Z"/>
</g>
<g fill="None" fill-opacity="0.0" stroke="#C0C4C5" stroke-opacity="0.51" stroke-width="0.3"><path d="
M 463.00 290.00 
C 471.20 286.21 484.99 288.38 493.22 289.78 C 501.46 291.18 512.40 293.25 518.00 300.00
C 507.61 284.06 490.14 280.66 473.00 279.00
C 469.88 280.15 465.49 287.51 463.00 290.00 Z"/>
</g>
<g fill="None" fill-opacity="0.0" stroke="#C0C4C5" stroke-opacity="1.00" stroke-width="0.3"><path d="
M 662.00 283.00 
C 659.77 283.14 657.22 283.23 655.00 283.00
C 657.68 283.62 659.32 283.48 662.00 283.00 Z"/>
</g>
<g fill="None" fill-opacity="0.0" stroke="#C0C4C5" stroke-opacity="0.49" stroke-width="0.3"><path d="
M 412.00 442.00 
C 415.71 445.71 416.66 453.22 424.33 452.67 C 432.00 452.12 437.60 455.28 445.00 455.00 C 452.40 454.72 460.73 455.45 467.99 454.99 C 475.25 454.53 479.95 453.32 486.99 451.99 C 494.04 450.66 497.76 449.72 504.92 446.92 C 512.09 444.13 512.00 443.54 520.30 439.31 C 528.61 435.07 538.96 426.60 545.08 419.08 C 551.21 411.56 550.02 411.63 554.23 405.23 C 558.44 398.83 558.78 396.56 561.23 390.23 C 563.68 383.90 565.53 379.28 566.67 372.67 C 567.81 366.06 569.25 358.90 569.00 352.00 C 568.75 345.10 569.37 336.83 568.78 330.22 C 568.19 323.61 565.62 318.05 563.98 312.02 C 562.33 306.00 559.23 301.86 556.30 296.70 C 553.38 291.53 550.04 289.20 546.00 285.00
C 570.79 320.84 562.35 376.27 535.25 409.25 C 508.15 442.22 452.62 453.01 412.00 442.00 Z"/>
</g>
<g fill="None" fill-opacity="0.0" stroke="#000000" stroke-opacity="0.00" stroke-width="0.3"><path d="
M 463.00 290.00 
C 460.16 292.84 456.11 295.35 454.00 299.00
C 453.83 300.29 452.30 300.75 452.00 302.00
C 455.07 302.41 456.09 306.18 456.00 309.00
C 458.89 313.01 467.78 311.72 465.00 320.00 C 462.22 328.28 463.99 326.69 461.01 336.01 C 458.03 345.33 455.38 358.65 453.07 368.07 C 450.76 377.50 452.09 378.10 450.02 385.02 C 447.96 391.94 449.83 397.03 447.22 402.22 C 444.61 407.41 449.38 416.96 445.00 420.00
C 448.29 420.18 451.71 420.09 455.00 420.00
C 456.39 419.84 459.02 419.16 461.00 419.00
C 500.37 415.83 525.24 382.25 526.00 344.00
C 526.13 337.75 526.42 331.24 526.00 325.00
C 525.43 316.65 522.51 306.91 518.00 300.00
C 512.40 293.25 501.46 291.18 493.22 289.78 C 484.99 288.38 471.20 286.21 463.00 290.00 Z"/>
</g>
<g fill="None" fill-opacity="0.0" stroke="#4BAF4D" stroke-opacity="1.00" stroke-width="0.3"><path d="
M 757.00 293.00 
C 745.94 298.29 740.73 315.32 752.00 323.00
C 753.53 324.04 755.30 324.52 757.00 325.00
C 771.61 329.15 790.33 319.10 785.00 302.00
C 781.49 290.75 766.76 288.33 757.00 293.00 Z"/>
</g>
<g fill="None" fill-opacity="0.0" stroke="#C0C4C5" stroke-opacity="0.50" stroke-width="0.3"><path d="
M 757.00 325.00 
C 760.55 328.58 762.34 336.56 770.00 336.00 C 777.66 335.44 783.41 335.96 789.25 331.25 C 795.08 326.53 795.45 321.21 795.78 314.22 C 796.11 307.23 788.58 305.83 785.00 302.00
C 790.33 319.10 771.61 329.15 757.00 325.00 Z"/>
</g>
<g fill="None" fill-opacity="0.0" stroke="#C0C4C5" stroke-opacity="0.50" stroke-width="0.3"><path d="
M 445.00 420.00 
C 449.38 416.96 444.61 407.41 447.22 402.22 C 449.83 397.03 447.96 391.94 450.02 385.02 C 452.09 378.10 450.76 377.50 453.07 368.07 C 455.38 358.65 458.03 345.33 461.01 336.01 C 463.99 326.69 462.22 328.28 465.00 320.00 C 467.78 311.72 458.89 313.01 456.00 309.00
C 445.27 344.20 438.09 381.43 435.00 419.00
C 438.57 419.00 441.47 419.81 445.00 420.00 Z"/>
</g>
<g fill="None" fill-opacity="0.0" stroke="#7BB97E" stroke-opacity="1.00" stroke-width="0.3"><path d="
M 526.00 344.00 
C 526.72 338.05 527.08 331.05 526.00 325.00
C 526.42 331.24 526.13 337.75 526.00 344.00 Z"/>
</g>
<g fill="None" fill-opacity="0.0" stroke="#7BB97E" stroke-opacity="1.00" stroke-width="0.3"><path d="
M 616.00 341.00 
C 619.61 340.86 623.39 340.80 627.00 341.00
C 623.34 340.41 619.70 340.47 616.00 341.00 Z"/>
</g>
<g fill="None" fill-opacity="0.0" stroke="#7BB97E" stroke-opacity="1.00" stroke-width="0.3"><path d="
M 756.00 341.00 
C 758.69 340.76 762.34 340.55 765.00 341.00
C 761.74 340.01 759.25 340.33 756.00 341.00 Z"/>
</g>
<g fill="None" fill-opacity="0.0" stroke="#7BB97E" stroke-opacity="1.00" stroke-width="0.3"><path d="
M 666.00 350.00 
C 666.33 348.58 666.89 347.01 667.00 345.00
C 666.82 346.12 666.20 348.30 666.00 350.00 Z"/>
</g>
<g fill="None" fill-opacity="0.0" stroke="#C0C4C5" stroke-opacity="1.00" stroke-width="0.3"><path d="
M 397.00 359.00 
C 401.81 355.64 406.17 350.48 410.00 346.00
C 406.14 349.86 399.49 353.90 397.00 359.00 Z"/>
</g>
<g fill="None" fill-opacity="0.0" stroke="#7BB97E" stroke-opacity="1.00" stroke-width="0.3"><path d="
M 584.00 359.00 
C 586.62 356.16 590.11 352.67 593.00 350.00
C 589.73 352.58 586.62 355.68 584.00 359.00 Z"/>
</g>
<g fill="None" fill-opacity="0.0" stroke="#C0C4C5" stroke-opacity="0.50" stroke-width="0.3"><path d="
M 772.00 420.00 
C 771.64 407.50 776.32 392.63 778.02 381.02 C 779.73 369.42 787.97 352.84 772.00 350.00
C 771.97 360.16 765.94 378.67 764.93 387.93 C 763.91 397.19 756.19 422.64 772.00 420.00 Z"/>
</g>
<g fill="None" fill-opacity="0.0" stroke="#C0C4C5" stroke-opacity="0.49" stroke-width="0.3"><path d="
M 616.00 422.00 
C 616.49 422.08 617.00 422.00 617.00 422.00
C 625.13 415.40 637.09 416.68 645.30 408.30 C 653.51 399.92 658.38 394.70 660.00 382.00 C 661.62 369.30 654.58 362.36 647.00 354.00
C 661.26 383.54 630.19 410.07 603.00 412.00
C 603.39 417.98 610.91 421.17 616.00 422.00 Z"/>
</g>
<g fill="None" fill-opacity="0.0" stroke="#C0C4C5" stroke-opacity="1.00" stroke-width="0.3"><path d="
M 386.00 371.00 
C 389.23 367.54 394.82 364.46 397.00 360.00
C 393.27 362.60 388.41 367.04 386.00 371.00 Z"/>
</g>
<g fill="None" fill-opacity="0.0" stroke="#C0C4C5" stroke-opacity="0.49" stroke-width="0.3"><path d="
M 612.00 390.00 
C 610.84 383.52 618.01 372.95 626.00 373.00
C 628.39 360.18 612.09 360.71 606.75 368.75 C 601.42 376.80 597.87 384.82 599.00 395.00
C 603.65 394.11 608.05 392.05 612.00 390.00 Z"/>
</g>
<g fill="None" fill-opacity="0.0" stroke="#7BB97E" stroke-opacity="1.00" stroke-width="0.3"><path d="
M 665.00 395.00 
C 665.00 385.00 665.00 375.00 665.00 365.00
C 664.09 374.36 664.09 385.57 665.00 395.00 Z"/>
</g>
<g fill="None" fill-opacity="0.0" stroke="#C0C4C5" stroke-opacity="1.00" stroke-width="0.3"><path d="
M 371.00 383.00 
C 374.65 386.22 382.41 377.25 385.00 373.00
C 382.37 375.82 374.57 385.02 371.00 383.00 Z"/>
</g>
<g fill="None" fill-opacity="0.0" stroke="#000000" stroke-opacity="0.00" stroke-width="0.3"><path d="
M 612.00 390.00 
C 613.54 389.20 615.62 388.78 617.00 388.00
C 618.60 386.93 622.96 382.54 624.00 381.00
C 625.31 378.70 625.86 375.67 626.00 373.00
C 618.01 372.95 610.84 383.52 612.00 390.00 Z"/>
</g>
<g fill="None" fill-opacity="0.0" stroke="#7BB97E" stroke-opacity="1.00" stroke-width="0.3"><path d="
M 617.00 388.00 
C 619.48 386.59 622.56 383.54 624.00 381.00
C 622.96 382.54 618.60 386.93 617.00 388.00 Z"/>
</g>
<g fill="None" fill-opacity="0.0" stroke="#7BB97E" stroke-opacity="1.00" stroke-width="0.3"><path d="
M 572.00 404.00 
C 571.85 400.02 571.92 395.98 572.00 392.00
C 571.53 395.86 571.44 400.05 572.00 404.00 Z"/>
</g>
<g fill="None" fill-opacity="0.0" stroke="#7BB97E" stroke-opacity="1.00" stroke-width="0.3"><path d="
M 735.00 403.00 
C 735.93 400.82 735.94 398.79 736.00 396.00
C 735.89 397.10 735.46 401.46 735.00 403.00 Z"/>
</g>
<g fill="None" fill-opacity="0.0" stroke="#7BB97E" stroke-opacity="1.00" stroke-width="0.3"><path d="
M 660.00 406.00 
C 661.50 404.89 664.47 403.04 665.00 401.00
C 664.82 401.55 660.69 405.40 660.00 406.00 Z"/>
</g>
<g fill="None" fill-opacity="0.0" stroke="#C0C4C5" stroke-opacity="0.49" stroke-width="0.3"><path d="
M 808.00 405.00 
C 808.00 427.79 771.88 452.48 751.00 443.00
C 757.65 449.15 764.31 457.30 775.00 455.00 C 785.68 452.70 791.33 450.06 798.75 443.75 C 806.18 437.45 810.63 433.12 815.69 425.69 C 820.75 418.27 819.31 401.47 808.00 405.00 Z"/>
</g>
<g fill="None" fill-opacity="0.0" stroke="#7BB97E" stroke-opacity="1.00" stroke-width="0.3"><path d="
M 779.00 416.00 
C 781.95 413.81 784.77 411.00 787.00 408.00
C 784.89 410.42 781.48 413.84 779.00 416.00 Z"/>
</g>
<g fill="None" fill-opacity="0.0" stroke="#7BB97E" stroke-opacity="1.00" stroke-width="0.3"><path d="
M 402.00 424.00 
C 402.17 422.82 402.93 420.84 403.00 419.00
C 402.83 420.18 402.07 422.16 402.00 424.00 Z"/>
</g>
<g fill="None" fill-opacity="0.0" stroke="#7BB97E" stroke-opacity="1.00" stroke-width="0.3"><path d="
M 455.00 420.00 
C 457.23 419.94 459.37 419.29 461.00 419.00
C 459.02 419.16 456.39 419.84 455.00 420.00 Z"/>
</g>
<g fill="None" fill-opacity="0.0" stroke="#7BB97E" stroke-opacity="1.00" stroke-width="0.3"><path d="
M 711.00 420.00 
C 708.69 420.22 706.32 419.83 704.00 420.00
C 706.78 420.88 708.24 420.61 711.00 420.00 Z"/>
</g>
<g fill="None" fill-opacity="0.0" stroke="#7BB97E" stroke-opacity="1.00" stroke-width="0.3"><path d="
M 622.00 423.00 
C 620.89 422.94 618.93 421.77 617.00 422.00
C 617.00 422.00 616.49 422.08 616.00 422.00
C 617.80 422.49 619.53 423.14 622.00 423.00 Z"/>
</g>
<g fill="None" fill-opacity="0.0" stroke="#C0C4C5" stroke-opacity="0.49" stroke-width="0.3"><path d="
M 591.00 438.00 
C 595.12 442.59 597.92 447.09 604.31 449.69 C 610.69 452.30 616.86 454.39 624.00 455.00 C 631.14 455.61 640.56 454.25 646.98 452.98 C 653.39 451.70 659.20 447.48 664.75 445.75 C 670.31 444.03 673.63 435.59 679.00 436.00
C 677.92 434.88 676.83 433.27 676.00 432.00
C 674.65 429.31 673.37 426.69 672.00 424.00
C 651.01 442.21 617.03 454.08 591.00 438.00 Z"/>
</g>
<g fill="None" fill-opacity="0.0" stroke="#7BB97E" stroke-opacity="1.00" stroke-width="0.3"><path d="
M 588.00 436.00 
C 585.85 434.03 583.03 431.20 581.00 429.00
C 583.03 431.58 585.32 433.97 588.00 436.00 Z"/>
</g>
<g fill="None" fill-opacity="0.0" stroke="#C0C4C5" stroke-opacity="0.49" stroke-width="0.3"><path d="
M 686.00 441.00 
C 689.97 445.33 692.12 449.41 697.92 452.08 C 703.73 454.74 710.60 454.88 717.00 455.00 C 723.40 455.11 728.55 451.02 733.92 449.92 C 739.30 448.83 742.10 440.94 747.00 441.00
C 743.25 438.50 740.96 434.11 739.00 430.00
C 724.61 442.62 704.25 450.33 686.00 441.00 Z"/>
</g>
<g fill="None" fill-opacity="0.0" stroke="#7BB97E" stroke-opacity="1.00" stroke-width="0.3"><path d="
M 679.00 436.00 
C 680.25 437.30 682.39 439.02 684.00 440.00
C 681.68 437.83 677.96 434.51 676.00 432.00
C 676.83 433.27 677.92 434.88 679.00 436.00 Z"/>
</g>
<g fill="#000000" fill-opacity="0.00" stroke="None">
<path d="
M 0.00 500.00 
L 1000.00 500.00
L 1000.00 0.00
L 0.00 0.00
L 0.00 500.00
M 349.00 5.00 
C 360.15 6.73 368.91 18.97 379.70 22.30 C 390.48 25.63 399.88 37.67 411.00 40.00
C 418.79 41.63 430.35 26.24 437.70 23.70 C 445.04 21.16 444.92 15.85 450.25 14.25 C 455.58 12.64 459.90 4.00 464.68 6.34 C 469.45 8.67 467.44 18.59 469.78 23.22 C 472.12 27.85 471.26 37.24 473.78 42.22 C 476.29 47.20 474.51 55.90 477.33 60.67 C 480.15 65.44 477.64 76.10 481.00 80.00
C 483.33 80.00 485.67 80.00 488.00 80.00
C 488.50 80.00 489.50 79.97 490.00 80.00
C 492.21 79.06 494.29 79.30 497.00 79.00
C 500.28 78.63 503.45 78.10 507.00 78.00
C 508.34 77.85 511.09 77.21 513.00 77.00
C 527.05 75.48 540.67 71.88 555.00 71.00
C 555.93 70.94 558.36 69.02 560.00 70.00
C 559.72 71.28 560.76 73.50 559.00 74.00
C 557.11 88.48 547.01 101.07 543.22 115.22 C 539.44 129.38 532.64 143.68 529.00 158.00
C 532.14 159.03 535.28 160.10 538.00 162.00
C 540.03 163.42 541.57 165.07 543.00 167.00
C 548.98 175.04 550.67 184.85 550.00 195.00
C 538.67 195.00 527.33 195.00 516.00 195.00
C 511.83 197.25 512.12 209.84 509.02 213.02 C 505.93 216.21 505.20 230.40 498.00 227.00
C 498.95 229.04 499.92 231.04 501.00 233.00
C 502.28 234.85 505.12 238.56 507.00 240.00
C 514.61 244.96 523.33 245.52 532.00 243.00
C 536.15 241.45 541.50 236.61 544.00 233.00
C 550.54 221.14 550.34 232.81 545.00 240.00
C 543.51 242.01 541.90 243.50 540.00 245.00
C 534.77 249.13 529.73 251.64 523.00 252.00
C 518.97 252.65 514.96 252.64 511.00 252.00
C 504.80 251.66 499.00 249.72 494.00 246.00
C 490.67 243.52 487.44 240.28 485.00 237.00
C 483.48 234.96 482.95 233.21 482.00 231.00
C 469.60 231.40 457.98 234.87 446.00 237.00
C 449.04 242.77 454.39 247.01 457.00 253.00
C 483.78 250.41 513.67 254.62 534.00 272.00
C 537.25 274.77 540.33 277.74 543.00 281.00
C 544.00 282.22 544.96 283.91 546.00 285.00
C 550.04 289.20 553.38 291.53 556.30 296.70 C 559.23 301.86 562.33 306.00 563.98 312.02 C 565.62 318.05 568.19 323.61 568.78 330.22 C 569.37 336.83 568.75 345.10 569.00 352.00 C 569.25 358.90 567.81 366.06 566.67 372.67 C 565.53 379.28 563.68 383.90 561.23 390.23 C 558.78 396.56 558.44 398.83 554.23 405.23 C 550.02 411.63 551.21 411.56 545.08 419.08 C 538.96 426.60 528.61 435.07 520.30 439.31 C 512.00 443.54 512.09 444.13 504.92 446.92 C 497.76 449.72 494.04 450.66 486.99 451.99 C 479.95 453.32 475.25 454.53 467.99 454.99 C 460.73 455.45 452.40 454.72 445.00 455.00 C 437.60 455.28 432.00 452.12 424.33 452.67 C 416.66 453.22 415.71 445.71 412.00 442.00
C 402.68 439.47 401.64 433.06 402.00 424.00
C 402.07 422.16 402.83 420.18 403.00 419.00
C 404.05 392.89 409.16 366.11 415.00 341.00
C 413.91 342.59 411.30 344.47 410.00 346.00
C 406.17 350.48 401.81 355.64 397.00 359.00
C 396.80 359.40 397.00 360.00 397.00 360.00
C 394.82 364.46 389.23 367.54 386.00 371.00
C 385.61 371.64 385.37 372.39 385.00 373.00
C 382.41 377.25 374.65 386.22 371.00 383.00
C 358.78 372.23 354.59 352.00 341.00 343.00
C 330.17 362.77 317.87 384.01 304.00 401.00
C 299.67 380.63 294.75 359.40 291.07 338.93 C 287.39 318.46 279.90 298.68 277.00 279.00
C 270.87 274.65 265.31 266.48 259.75 261.25 C 254.20 256.02 245.92 249.70 243.00 243.00
C 232.62 219.23 229.81 192.41 221.07 167.93 C 212.34 143.44 208.04 116.79 200.00 92.00
C 247.73 62.91 294.37 30.79 344.00 5.00
C 346.29 4.38 346.71 4.26 349.00 5.00
M 596.00 173.00 
C 596.23 172.35 596.69 171.60 597.00 171.00
C 599.42 166.29 603.47 161.78 608.00 159.00
C 617.45 153.21 632.14 155.66 635.00 167.00
C 635.64 169.53 635.72 170.49 635.00 173.00
C 633.15 186.38 611.94 182.22 616.00 169.00
C 616.44 167.58 621.99 161.87 620.00 161.00
C 619.02 160.57 616.08 160.85 615.00 161.00
C 602.69 164.44 594.96 178.96 594.00 191.00
C 592.92 204.65 591.79 222.51 594.00 236.00
C 594.14 236.87 594.67 239.20 595.00 240.00
C 595.51 240.97 599.21 243.64 600.00 244.00
C 604.38 245.56 613.54 243.98 613.00 250.00
C 610.33 250.00 607.67 250.00 605.00 250.00
C 602.67 250.00 600.33 250.00 598.00 250.00
C 590.00 250.00 582.00 250.00 574.00 250.00
C 571.79 250.00 569.16 250.40 567.00 250.00
C 560.52 248.80 564.44 245.40 569.22 245.22 C 574.00 245.04 575.87 241.01 577.00 237.00
C 578.51 227.09 576.82 216.05 577.00 206.00 C 577.18 195.95 578.03 185.00 577.00 175.00
C 575.68 169.06 574.77 165.64 569.00 163.00
C 559.17 159.89 565.10 158.33 572.00 159.00
C 574.00 159.00 576.00 159.00 578.00 159.00
C 579.23 158.89 581.95 158.99 583.00 159.00
C 585.89 158.80 589.20 156.72 592.00 157.00
C 596.31 157.43 592.92 169.82 594.00 175.00
C 595.26 174.92 594.56 172.94 596.00 173.00
M 641.00 159.00 
C 641.83 159.23 643.14 159.00 644.00 159.00
C 651.33 159.00 658.67 159.00 666.00 159.00
C 667.67 159.00 669.33 159.00 671.00 159.00
C 672.44 158.85 676.67 156.31 678.00 159.00
C 678.17 159.35 678.15 161.63 678.00 162.00
C 677.33 163.67 674.45 162.83 673.00 163.00
C 658.35 164.75 672.46 185.32 675.32 194.68 C 678.18 204.04 686.17 218.94 689.00 229.00
C 696.39 211.15 703.59 192.49 710.00 174.00
C 710.35 170.89 710.21 165.69 707.00 164.00
C 706.09 163.63 704.04 163.23 703.00 163.00
C 699.84 162.30 695.54 163.32 697.00 158.00
C 700.50 158.62 705.32 156.73 708.00 159.00
C 711.00 159.00 714.00 159.00 717.00 159.00
C 718.85 158.82 724.33 156.20 726.00 159.00
C 726.59 159.98 725.55 161.93 726.00 163.00
C 711.79 169.34 710.58 188.82 704.22 202.22 C 697.87 215.63 693.77 232.92 687.23 246.23 C 680.69 259.54 679.81 280.73 662.00 283.00
C 659.32 283.48 657.68 283.62 655.00 283.00
C 646.32 280.98 639.98 268.48 651.00 264.00
C 653.90 262.82 656.17 262.95 659.00 264.00
C 666.12 266.63 664.10 271.33 663.00 277.00
C 662.74 278.35 661.56 279.06 664.00 279.00
C 664.37 278.78 665.00 279.00 665.00 279.00
C 666.83 277.83 670.70 274.84 672.00 273.00
C 679.41 260.66 682.46 247.34 675.22 234.78 C 667.99 222.21 666.06 209.84 659.69 197.31 C 653.33 184.77 651.84 170.96 640.00 163.00
C 639.31 162.54 637.75 163.37 637.00 163.00
C 635.77 160.07 638.34 155.82 641.00 159.00
M 735.00 238.00 
C 737.31 239.54 739.54 241.71 741.00 244.00
C 741.77 245.20 742.09 246.04 743.00 247.00
C 747.94 252.22 754.70 257.28 754.98 265.02 C 755.25 272.77 760.60 285.12 757.00 293.00
C 766.76 288.33 781.49 290.75 785.00 302.00
C 788.58 305.83 796.11 307.23 795.78 314.22 C 795.45 321.21 795.08 326.53 789.25 331.25 C 783.41 335.96 777.66 335.44 770.00 336.00 C 762.34 336.56 760.55 328.58 757.00 325.00
C 755.30 324.52 753.53 324.04 752.00 323.00
C 747.13 323.77 746.43 338.28 743.08 343.08 C 739.73 347.87 737.39 357.28 734.08 363.08 C 730.76 368.87 726.93 376.38 723.25 382.25 C 719.56 388.11 716.22 394.40 712.23 400.23 C 708.24 406.06 701.02 412.40 704.00 420.00
C 706.32 419.83 708.69 420.22 711.00 420.00
C 719.57 418.10 731.23 411.83 735.00 403.00
C 735.46 401.46 735.89 397.10 736.00 396.00
C 736.22 385.19 738.67 374.19 740.98 363.98 C 743.28 353.76 744.55 343.37 756.00 341.00
C 759.25 340.33 761.74 340.01 765.00 341.00
C 769.92 342.49 772.02 344.40 772.00 350.00
C 787.97 352.84 779.73 369.42 778.02 381.02 C 776.32 392.63 771.64 407.50 772.00 420.00
C 774.28 419.62 777.18 417.35 779.00 416.00
C 781.48 413.84 784.89 410.42 787.00 408.00
C 792.81 400.18 808.00 384.55 808.00 405.00
C 819.31 401.47 820.75 418.27 815.69 425.69 C 810.63 433.12 806.18 437.45 798.75 443.75 C 791.33 450.06 785.68 452.70 775.00 455.00 C 764.31 457.30 757.65 449.15 751.00 443.00
C 749.68 442.40 748.20 441.79 747.00 441.00
C 742.10 440.94 739.30 448.83 733.92 449.92 C 728.55 451.02 723.40 455.11 717.00 455.00 C 710.60 454.88 703.73 454.74 697.92 452.08 C 692.12 449.41 689.97 445.33 686.00 441.00
C 685.37 440.68 684.58 440.35 684.00 440.00
C 682.39 439.02 680.25 437.30 679.00 436.00
C 673.63 435.59 670.31 444.03 664.75 445.75 C 659.20 447.48 653.39 451.70 646.98 452.98 C 640.56 454.25 631.14 455.61 624.00 455.00 C 616.86 454.39 610.69 452.30 604.31 449.69 C 597.92 447.09 595.12 442.59 591.00 438.00
C 590.01 437.39 588.89 436.67 588.00 436.00
C 585.32 433.97 583.03 431.58 581.00 429.00
C 575.19 421.65 572.36 413.38 572.00 404.00
C 571.44 400.05 571.53 395.86 572.00 392.00
C 572.24 380.07 576.63 368.34 584.00 359.00
C 586.62 355.68 589.73 352.58 593.00 350.00
C 599.73 344.69 607.37 341.33 616.00 341.00
C 619.70 340.47 623.34 340.41 627.00 341.00
C 635.48 341.46 643.07 346.22 647.00 354.00
C 654.58 362.36 661.62 369.30 660.00 382.00 C 658.38 394.70 653.51 399.92 645.30 408.30 C 637.09 416.68 625.13 415.40 617.00 422.00
C 618.93 421.77 620.89 422.94 622.00 423.00
C 636.42 422.18 648.67 414.42 660.00 406.00
C 660.69 405.40 664.82 401.55 665.00 401.00
C 665.45 399.27 665.00 396.80 665.00 395.00
C 664.09 385.57 664.09 374.36 665.00 365.00
C 665.00 359.74 665.41 354.99 666.00 350.00
C 666.20 348.30 666.82 346.12 667.00 345.00
C 668.69 314.10 678.51 274.69 698.00 250.00
C 700.60 246.71 703.68 243.47 707.00 241.00
C 714.88 235.14 726.20 232.14 735.00 238.00 Z"/>
</g>
<g fill="#C0C4C5" fill-opacity="1.00" stroke="None">
<path d="
M 344.00 5.00 
C 345.46 4.82 347.55 4.77 349.00 5.00
C 346.71 4.26 346.29 4.38 344.00 5.00 Z"/>
</g>
<g fill="#4F5253" fill-opacity="1.00" stroke="None">
<path d="
M 243.00 243.00 
C 250.61 256.80 268.94 265.22 278.00 278.00
C 284.89 272.82 287.86 264.39 294.25 258.25 C 300.64 252.11 304.16 243.96 310.25 237.25 C 316.35 230.55 319.80 223.01 325.77 215.77 C 331.74 208.53 336.25 200.25 331.22 191.78 C 326.20 183.30 324.16 175.05 320.23 166.77 C 316.30 158.49 312.57 148.63 309.23 140.77 C 305.89 132.91 297.73 121.41 305.25 116.25 C 312.76 111.08 320.82 107.24 328.08 102.08 C 335.34 96.92 342.03 92.17 349.25 87.25 C 356.46 82.32 363.65 76.67 370.75 71.75 C 377.84 66.82 383.85 59.29 391.25 55.25 C 398.65 51.20 406.15 43.17 411.00 40.00
C 399.88 37.67 390.48 25.63 379.70 22.30 C 368.91 18.97 360.15 6.73 349.00 5.00
C 347.55 4.77 345.46 4.82 344.00 5.00
C 294.37 30.79 247.73 62.91 200.00 92.00
C 208.04 116.79 212.34 143.44 221.07 167.93 C 229.81 192.41 232.62 219.23 243.00 243.00 Z"/>
</g>
<g fill="#6C7071" fill-opacity="1.00" stroke="None">
<path d="
M 411.00 40.00 
C 406.15 43.17 398.65 51.20 391.25 55.25 C 383.85 59.29 377.84 66.82 370.75 71.75 C 363.65 76.67 356.46 82.32 349.25 87.25 C 342.03 92.17 335.34 96.92 328.08 102.08 C 320.82 107.24 312.76 111.08 305.25 116.25 C 297.73 121.41 305.89 132.91 309.23 140.77 C 312.57 148.63 316.30 158.49 320.23 166.77 C 324.16 175.05 326.20 183.30 331.22 191.78 C 336.25 200.25 331.74 208.53 325.77 215.77 C 319.80 223.01 316.35 230.55 310.25 237.25 C 304.16 243.96 300.64 252.11 294.25 258.25 C 287.86 264.39 284.89 272.82 278.00 278.00
C 277.73 278.20 277.21 278.74 277.00 279.00
C 279.90 298.68 287.39 318.46 291.07 338.93 C 294.75 359.40 299.67 380.63 304.00 401.00
C 317.87 384.01 330.17 362.77 341.00 343.00
C 354.59 352.00 358.78 372.23 371.00 383.00
C 374.57 385.02 382.37 375.82 385.00 373.00
C 385.37 372.39 385.61 371.64 386.00 371.00
C 388.41 367.04 393.27 362.60 397.00 360.00
C 397.00 360.00 396.80 359.40 397.00 359.00
C 399.49 353.90 406.14 349.86 410.00 346.00
C 411.30 344.47 413.91 342.59 415.00 341.00
C 417.92 328.46 421.18 322.15 423.93 308.93 C 426.67 295.70 447.20 304.05 454.00 299.00
C 456.11 295.35 460.16 292.84 463.00 290.00
C 465.49 287.51 469.88 280.15 473.00 279.00
C 468.67 279.07 464.33 278.91 460.00 279.00
C 448.65 279.23 429.53 285.47 420.31 289.31 C 411.08 293.14 391.74 309.10 388.00 294.00
C 385.94 299.57 376.65 302.80 373.25 308.25 C 369.84 313.70 362.42 317.00 358.25 322.25 C 354.08 327.49 347.73 332.38 343.00 337.00
C 342.64 323.04 341.54 308.88 341.00 295.00 C 340.46 281.12 340.16 266.59 339.00 253.00 C 337.84 239.41 338.96 224.05 337.00 211.00 C 335.05 197.95 348.71 193.94 356.25 186.25 C 363.78 178.55 372.57 173.79 380.00 166.00
C 383.79 162.76 388.42 159.94 392.00 157.00
C 421.52 132.75 449.85 106.56 480.00 83.00
C 477.04 99.03 472.73 115.22 469.01 131.01 C 465.29 146.80 459.86 162.23 457.22 178.22 C 454.59 194.21 451.16 212.57 448.00 228.00 C 444.85 243.43 430.87 248.85 422.00 261.00
C 432.65 257.12 446.03 254.06 457.00 253.00
C 454.39 247.01 449.04 242.77 446.00 237.00
C 457.98 234.87 469.60 231.40 482.00 231.00
C 468.05 198.67 484.82 143.46 529.00 158.00
C 532.64 143.68 539.44 129.38 543.22 115.22 C 547.01 101.07 557.11 88.48 559.00 74.00
C 558.36 70.59 558.36 71.52 555.00 71.00
C 540.67 71.88 527.05 75.48 513.00 77.00
C 511.30 77.35 509.28 77.94 507.00 78.00
C 503.45 78.10 500.28 78.63 497.00 79.00
C 494.98 79.41 492.67 80.17 490.00 80.00
C 489.50 79.97 488.50 80.00 488.00 80.00
C 486.11 80.80 482.80 82.09 481.00 80.00
C 477.64 76.10 480.15 65.44 477.33 60.67 C 474.51 55.90 476.29 47.20 473.78 42.22 C 471.26 37.24 472.12 27.85 469.78 23.22 C 467.44 18.59 469.45 8.67 464.68 6.34 C 459.90 4.00 455.58 12.64 450.25 14.25 C 444.92 15.85 445.04 21.16 437.70 23.70 C 430.35 26.24 418.79 41.63 411.00 40.00 Z"/>
</g>
<g fill="#C0C4C5" fill-opacity="1.00" stroke="None">
<path d="
M 555.00 71.00 
C 558.36 71.52 558.36 70.59 559.00 74.00
C 560.76 73.50 559.72 71.28 560.00 70.00
C 558.36 69.02 555.93 70.94 555.00 71.00 Z"/>
</g>
<g fill="#C0C4C5" fill-opacity="1.00" stroke="None">
<path d="
M 507.00 78.00 
C 509.28 77.94 511.30 77.35 513.00 77.00
C 511.09 77.21 508.34 77.85 507.00 78.00 Z"/>
</g>
<g fill="#C0C4C5" fill-opacity="1.00" stroke="None">
<path d="
M 490.00 80.00 
C 492.67 80.17 494.98 79.41 497.00 79.00
C 494.29 79.30 492.21 79.06 490.00 80.00 Z"/>
</g>
<g fill="#C0C4C5" fill-opacity="1.00" stroke="None">
<path d="
M 488.00 80.00 
C 485.67 80.00 483.33 80.00 481.00 80.00
C 482.80 82.09 486.11 80.80 488.00 80.00 Z"/>
</g>
<g fill="#303233" fill-opacity="1.00" stroke="None">
<path d="
M 392.00 157.00 
C 390.88 164.28 399.49 172.77 400.78 180.22 C 402.06 187.68 407.39 196.02 409.32 203.68 C 411.25 211.33 416.60 219.02 418.00 227.00
C 421.57 222.03 423.44 215.78 425.78 209.78 C 428.11 203.77 430.50 197.93 432.78 191.78 C 435.06 185.62 437.39 180.11 439.78 173.78 C 442.16 167.45 444.02 162.42 446.77 155.77 C 449.52 149.13 451.28 143.45 450.67 135.33 C 450.06 127.21 436.01 130.51 436.00 124.00
C 446.79 124.35 458.32 126.45 469.00 124.00
C 465.27 130.85 456.89 136.54 454.68 145.68 C 452.47 154.81 446.96 162.24 444.23 171.23 C 441.50 180.22 437.37 189.26 434.08 198.08 C 430.78 206.89 427.34 215.21 424.07 224.07 C 420.80 232.94 417.09 242.03 414.00 251.00
C 406.33 246.11 404.12 233.90 400.23 224.77 C 396.34 215.64 392.82 205.17 389.22 195.78 C 385.63 186.38 380.17 175.53 380.00 166.00
C 372.57 173.79 363.78 178.55 356.25 186.25 C 348.71 193.94 335.05 197.95 337.00 211.00 C 338.96 224.05 337.84 239.41 339.00 253.00 C 340.16 266.59 340.46 281.12 341.00 295.00 C 341.54 308.88 342.64 323.04 343.00 337.00
C 347.73 332.38 354.08 327.49 358.25 322.25 C 362.42 317.00 369.84 313.70 373.25 308.25 C 376.65 302.80 385.94 299.57 388.00 294.00
C 383.25 274.82 408.72 265.84 422.00 261.00
C 430.87 248.85 444.85 243.43 448.00 228.00 C 451.16 212.57 454.59 194.21 457.22 178.22 C 459.86 162.23 465.29 146.80 469.01 131.01 C 472.73 115.22 477.04 99.03 480.00 83.00
C 449.85 106.56 421.52 132.75 392.00 157.00 Z"/>
</g>
<g fill="#000000" fill-opacity="1.00" stroke="None">
<path d="
M 392.00 157.00 
C 388.42 159.94 383.79 162.76 380.00 166.00
C 380.17 175.53 385.63 186.38 389.22 195.78 C 392.82 205.17 396.34 215.64 400.23 224.77 C 404.12 233.90 406.33 246.11 414.00 251.00
C 417.09 242.03 420.80 232.94 424.07 224.07 C 427.34 215.21 430.78 206.89 434.08 198.08 C 437.37 189.26 441.50 180.22 444.23 171.23 C 446.96 162.24 452.47 154.81 454.68 145.68 C 456.89 136.54 465.27 130.85 469.00 124.00
C 458.32 126.45 446.79 124.35 436.00 124.00
C 436.01 130.51 450.06 127.21 450.67 135.33 C 451.28 143.45 449.52 149.13 446.77 155.77 C 444.02 162.42 442.16 167.45 439.78 173.78 C 437.39 180.11 435.06 185.62 432.78 191.78 C 430.50 197.93 428.11 203.77 425.78 209.78 C 423.44 215.78 421.57 222.03 418.00 227.00
C 416.60 219.02 411.25 211.33 409.32 203.68 C 407.39 196.02 402.06 187.68 400.78 180.22 C 399.49 172.77 390.88 164.28 392.00 157.00 Z"/>
</g>
<g fill="#000000" fill-opacity="1.00" stroke="None">
<path d="
M 482.00 231.00 
C 482.95 233.21 483.48 234.96 485.00 237.00
C 487.46 239.82 491.23 243.59 494.00 246.00
C 499.00 249.72 504.80 251.66 511.00 252.00
C 514.92 252.21 519.08 252.21 523.00 252.00
C 529.73 251.64 534.77 249.13 540.00 245.00
C 541.48 243.64 543.74 241.45 545.00 240.00
C 550.34 232.81 550.54 221.14 544.00 233.00
C 541.28 237.93 537.37 241.44 532.00 243.00
C 523.33 245.52 514.61 244.96 507.00 240.00
C 504.12 238.12 502.58 235.86 501.00 233.00
C 499.92 231.04 498.95 229.04 498.00 227.00
C 493.83 218.08 494.74 212.33 494.00 202.00 C 493.26 191.67 507.92 195.00 516.00 195.00
C 527.33 195.00 538.67 195.00 550.00 195.00
C 550.67 184.85 548.98 175.04 543.00 167.00
C 541.78 165.61 539.36 163.12 538.00 162.00
C 535.28 160.10 532.14 159.03 529.00 158.00
C 484.82 143.46 468.05 198.67 482.00 231.00
M 529.00 168.00 
C 530.47 171.36 531.11 175.41 532.00 179.00
C 532.44 180.77 532.95 182.66 533.00 185.00
C 533.03 186.32 533.64 189.89 533.00 191.00
C 531.54 193.55 519.95 192.00 517.00 192.00
C 509.41 192.00 501.16 192.80 494.00 191.00
C 491.63 172.95 514.78 145.95 529.00 168.00 Z"/>
</g>
<g fill="#C0C4C5" fill-opacity="1.00" stroke="None">
<path d="
M 592.00 157.00 
C 596.39 159.80 590.79 173.63 593.00 178.00
C 594.92 177.15 595.78 174.95 596.00 173.00
C 594.56 172.94 595.26 174.92 594.00 175.00
C 592.92 169.82 596.31 157.43 592.00 157.00 Z"/>
</g>
<g fill="#000000" fill-opacity="1.00" stroke="None">
<path d="
M 608.00 159.00 
C 604.19 161.75 599.77 167.54 597.00 171.00
C 596.69 171.60 596.23 172.35 596.00 173.00
C 595.78 174.95 594.92 177.15 593.00 178.00
C 590.79 173.63 596.39 159.80 592.00 157.00
C 589.20 156.72 585.89 158.80 583.00 159.00
C 581.35 159.11 579.65 159.00 578.00 159.00
C 576.00 159.00 574.00 159.00 572.00 159.00
C 569.33 159.00 566.67 159.00 564.00 159.00
C 562.56 163.32 567.82 160.81 569.00 163.00
C 574.77 165.64 575.68 169.06 577.00 175.00
C 579.04 184.19 578.20 196.03 578.00 206.00 C 577.80 215.97 579.55 227.97 577.00 237.00
C 575.87 241.01 574.00 245.04 569.22 245.22 C 564.44 245.40 560.52 248.80 567.00 250.00
C 568.00 250.10 572.17 249.04 574.00 249.00
C 581.98 248.84 590.02 248.84 598.00 249.00
C 600.41 249.05 603.30 249.84 605.00 250.00
C 607.67 250.00 610.33 250.00 613.00 250.00
C 613.54 243.98 604.38 245.56 600.00 244.00
C 597.96 243.28 595.93 242.27 595.00 240.00
C 594.67 239.20 594.14 236.87 594.00 236.00
C 590.40 224.43 591.74 202.70 594.00 191.00
C 594.96 178.96 602.69 164.44 615.00 161.00
C 617.13 160.40 617.79 159.60 620.00 161.00
C 623.85 163.43 617.09 166.36 616.00 169.00
C 611.94 182.22 633.15 186.38 635.00 173.00
C 635.25 171.22 635.22 168.79 635.00 167.00
C 632.14 155.66 617.45 153.21 608.00 159.00 Z"/>
</g>
<g fill="#C0C4C5" fill-opacity="1.00" stroke="None">
<path d="
M 569.00 163.00 
C 567.82 160.81 562.56 163.32 564.00 159.00
C 566.67 159.00 569.33 159.00 572.00 159.00
C 565.10 158.33 559.17 159.89 569.00 163.00 Z"/>
</g>
<g fill="#C0C4C5" fill-opacity="1.00" stroke="None">
<path d="
M 578.00 159.00 
C 579.65 159.00 581.35 159.11 583.00 159.00
C 581.95 158.99 579.23 158.89 578.00 159.00 Z"/>
</g>
<g fill="#C0C4C5" fill-opacity="1.00" stroke="None">
<path d="
M 640.00 163.00 
C 638.87 161.92 637.43 161.11 638.00 159.00
C 639.00 159.00 640.00 159.00 641.00 159.00
C 638.34 155.82 635.77 160.07 637.00 163.00
C 637.75 163.37 639.31 162.54 640.00 163.00 Z"/>
</g>
<g fill="#C0C4C5" fill-opacity="1.00" stroke="None">
<path d="
M 671.00 159.00 
C 673.33 159.00 675.67 159.00 678.00 159.00
C 676.67 156.31 672.44 158.85 671.00 159.00 Z"/>
</g>
<g fill="#C0C4C5" fill-opacity="1.00" stroke="None">
<path d="
M 703.00 163.00 
C 701.16 162.35 697.10 162.30 698.00 159.00
C 701.33 159.00 704.67 159.00 708.00 159.00
C 705.32 156.73 700.50 158.62 697.00 158.00
C 695.54 163.32 699.84 162.30 703.00 163.00 Z"/>
</g>
<g fill="#C0C4C5" fill-opacity="1.00" stroke="None">
<path d="
M 717.00 159.00 
C 720.00 159.00 723.00 159.00 726.00 159.00
C 724.33 156.20 718.85 158.82 717.00 159.00 Z"/>
</g>
<g fill="#6C7071" fill-opacity="1.00" stroke="None">
<path d="
M 597.00 171.00 
C 599.77 167.54 604.19 161.75 608.00 159.00
C 603.47 161.78 599.42 166.29 597.00 171.00 Z"/>
</g>
<g fill="#000000" fill-opacity="1.00" stroke="None">
<path d="
M 640.00 163.00 
C 651.84 170.96 653.33 184.77 659.69 197.31 C 666.06 209.84 667.99 222.21 675.22 234.78 C 682.46 247.34 679.41 260.66 672.00 273.00
C 670.49 275.52 667.82 278.45 665.00 279.00
C 665.00 279.00 664.37 278.78 664.00 279.00
C 662.90 279.66 661.69 280.46 660.00 280.00
C 660.67 278.80 661.64 277.42 663.00 277.00
C 664.10 271.33 666.12 266.63 659.00 264.00
C 657.08 263.57 652.91 263.52 651.00 264.00
C 639.98 268.48 646.32 280.98 655.00 283.00
C 657.22 283.23 659.77 283.14 662.00 283.00
C 679.81 280.73 680.69 259.54 687.23 246.23 C 693.77 232.92 697.87 215.63 704.22 202.22 C 710.58 188.82 711.79 169.34 726.00 163.00
C 725.55 161.93 726.59 159.98 726.00 159.00
C 723.00 159.00 720.00 159.00 717.00 159.00
C 714.00 159.00 711.00 159.00 708.00 159.00
C 704.67 159.00 701.33 159.00 698.00 159.00
C 697.10 162.30 701.16 162.35 703.00 163.00
C 704.04 163.23 706.09 163.63 707.00 164.00
C 711.92 166.01 710.92 170.47 710.00 174.00
C 703.59 192.49 696.39 211.15 689.00 229.00
C 686.17 218.94 678.18 204.04 675.32 194.68 C 672.46 185.32 658.35 164.75 673.00 163.00
C 672.91 163.02 678.18 161.77 678.00 162.00
C 678.15 161.63 678.17 159.35 678.00 159.00
C 675.67 159.00 673.33 159.00 671.00 159.00
C 669.33 159.00 667.67 159.00 666.00 159.00
C 659.16 159.73 650.81 160.50 644.00 159.00
C 643.14 159.00 641.83 159.23 641.00 159.00
C 640.00 159.00 639.00 159.00 638.00 159.00
C 637.43 161.11 638.87 161.92 640.00 163.00 Z"/>
</g>
<g fill="#6C7071" fill-opacity="1.00" stroke="None">
<path d="
M 666.00 159.00 
C 658.67 159.00 651.33 159.00 644.00 159.00
C 650.81 160.50 659.16 159.73 666.00 159.00 Z"/>
</g>
<g fill="#6C7071" fill-opacity="1.00" stroke="None">
<path d="
M 517.00 192.00 
C 516.96 192.00 517.00 191.00 517.00 191.00
C 521.82 183.36 523.01 173.34 526.00 165.00
C 527.26 165.56 527.25 167.85 529.00 168.00
C 514.78 145.95 491.63 172.95 494.00 191.00
C 501.16 192.80 509.41 192.00 517.00 192.00 Z"/>
</g>
<g fill="#4F5253" fill-opacity="1.00" stroke="None">
<path d="
M 615.00 161.00 
C 616.08 160.85 619.02 160.57 620.00 161.00
C 617.79 159.60 617.13 160.40 615.00 161.00 Z"/>
</g>
<g fill="#6C7071" fill-opacity="1.00" stroke="None">
<path d="
M 616.00 169.00 
C 617.09 166.36 623.85 163.43 620.00 161.00
C 621.99 161.87 616.44 167.58 616.00 169.00 Z"/>
</g>
<g fill="#C0C4C5" fill-opacity="1.00" stroke="None">
<path d="
M 543.00 167.00 
C 541.57 165.07 540.03 163.42 538.00 162.00
C 539.36 163.12 541.78 165.61 543.00 167.00 Z"/>
</g>
<g fill="#C0C4C5" fill-opacity="1.00" stroke="None">
<path d="
M 673.00 163.00 
C 674.45 162.83 677.33 163.67 678.00 162.00
C 678.18 161.77 672.91 163.02 673.00 163.00 Z"/>
</g>
<g fill="#C0C4C5" fill-opacity="1.00" stroke="None">
<path d="
M 710.00 174.00 
C 710.92 170.47 711.92 166.01 707.00 164.00
C 710.21 165.69 710.35 170.89 710.00 174.00 Z"/>
</g>
<g fill="#000000" fill-opacity="0.00" stroke="None">
<path d="
M 517.00 191.00 
C 522.29 190.52 527.70 191.36 533.00 191.00
C 533.64 189.89 533.03 186.32 533.00 185.00
C 532.86 183.73 532.25 180.81 532.00 179.00
C 531.11 175.41 530.47 171.36 529.00 168.00
C 527.25 167.85 527.26 165.56 526.00 165.00
C 523.01 173.34 521.82 183.36 517.00 191.00 Z"/>
</g>
<g fill="#C0C4C5" fill-opacity="1.00" stroke="None">
<path d="
M 635.00 173.00 
C 635.72 170.49 635.64 169.53 635.00 167.00
C 635.22 168.79 635.25 171.22 635.00 173.00 Z"/>
</g>
<g fill="#6C7071" fill-opacity="1.00" stroke="None">
<path d="
M 577.00 237.00 
C 579.55 227.97 577.80 215.97 578.00 206.00 C 578.20 196.03 579.04 184.19 577.00 175.00
C 578.03 185.00 577.18 195.95 577.00 206.00 C 576.82 216.05 578.51 227.09 577.00 237.00 Z"/>
</g>
<g fill="#C0C4C5" fill-opacity="1.00" stroke="None">
<path d="
M 533.00 185.00 
C 532.95 182.66 532.44 180.77 532.00 179.00
C 532.25 180.81 532.86 183.73 533.00 185.00 Z"/>
</g>
<g fill="#C0C4C5" fill-opacity="1.00" stroke="None">
<path d="
M 517.00 192.00 
C 519.95 192.00 531.54 193.55 533.00 191.00
C 527.70 191.36 522.29 190.52 517.00 191.00
C 517.00 191.00 516.96 192.00 517.00 192.00 Z"/>
</g>
<g fill="#6C7071" fill-opacity="1.00" stroke="None">
<path d="
M 594.00 236.00 
C 591.79 222.51 592.92 204.65 594.00 191.00
C 591.74 202.70 590.40 224.43 594.00 236.00 Z"/>
</g>
<g fill="#6C7071" fill-opacity="1.00" stroke="None">
<path d="
M 498.00 227.00 
C 505.20 230.40 505.93 216.21 509.02 213.02 C 512.12 209.84 511.83 197.25 516.00 195.00
C 507.92 195.00 493.26 191.67 494.00 202.00 C 494.74 212.33 493.83 218.08 498.00 227.00 Z"/>
</g>
<g fill="#6C7071" fill-opacity="1.00" stroke="None">
<path d="
M 507.00 240.00 
C 505.12 238.56 502.28 234.85 501.00 233.00
C 502.58 235.86 504.12 238.12 507.00 240.00 Z"/>
</g>
<g fill="#6C7071" fill-opacity="1.00" stroke="None">
<path d="
M 532.00 243.00 
C 537.37 241.44 541.28 237.93 544.00 233.00
C 541.50 236.61 536.15 241.45 532.00 243.00 Z"/>
</g>
<g fill="#4BAF4D" fill-opacity="1.00" stroke="None">
<path d="
M 707.00 241.00 
C 704.11 243.52 700.57 247.22 698.00 250.00
C 678.51 274.69 668.69 314.10 667.00 345.00
C 666.89 347.01 666.33 348.58 666.00 350.00
C 665.41 354.99 665.00 359.74 665.00 365.00
C 665.00 375.00 665.00 385.00 665.00 395.00
C 665.00 396.80 665.45 399.27 665.00 401.00
C 664.47 403.04 661.50 404.89 660.00 406.00
C 648.67 414.42 636.42 422.18 622.00 423.00
C 619.53 423.14 617.80 422.49 616.00 422.00
C 610.91 421.17 603.39 417.98 603.00 412.00
C 630.19 410.07 661.26 383.54 647.00 354.00
C 643.07 346.22 635.48 341.46 627.00 341.00
C 623.39 340.80 619.61 340.86 616.00 341.00
C 607.37 341.33 599.73 344.69 593.00 350.00
C 590.11 352.67 586.62 356.16 584.00 359.00
C 576.63 368.34 572.24 380.07 572.00 392.00
C 571.92 395.98 571.85 400.02 572.00 404.00
C 572.36 413.38 575.19 421.65 581.00 429.00
C 583.03 431.20 585.85 434.03 588.00 436.00
C 588.89 436.67 590.01 437.39 591.00 438.00
C 617.03 454.08 651.01 442.21 672.00 424.00
C 673.37 426.69 674.65 429.31 676.00 432.00
C 677.96 434.51 681.68 437.83 684.00 440.00
C 684.58 440.35 685.37 440.68 686.00 441.00
C 704.25 450.33 724.61 442.62 739.00 430.00
C 740.96 434.11 743.25 438.50 747.00 441.00
C 748.20 441.79 749.68 442.40 751.00 443.00
C 771.88 452.48 808.00 427.79 808.00 405.00
C 808.00 384.55 792.81 400.18 787.00 408.00
C 784.77 411.00 781.95 413.81 779.00 416.00
C 777.18 417.35 774.28 419.62 772.00 420.00
C 756.19 422.64 763.91 397.19 764.93 387.93 C 765.94 378.67 771.97 360.16 772.00 350.00
C 772.02 344.40 769.92 342.49 765.00 341.00
C 762.34 340.55 758.69 340.76 756.00 341.00
C 744.55 343.37 743.28 353.76 740.98 363.98 C 738.67 374.19 736.22 385.19 736.00 396.00
C 735.94 398.79 735.93 400.82 735.00 403.00
C 731.23 411.83 719.57 418.10 711.00 420.00
C 708.24 420.61 706.78 420.88 704.00 420.00
C 688.96 415.24 693.91 400.55 701.75 391.75 C 709.60 382.96 713.42 371.98 719.77 361.77 C 726.13 351.56 730.76 339.85 735.32 328.32 C 739.88 316.79 744.54 303.92 745.99 290.99 C 747.44 278.06 749.24 259.01 743.00 247.00
C 742.09 246.04 741.77 245.20 741.00 244.00
C 739.75 242.40 736.55 239.21 735.00 238.00
C 726.20 232.14 714.88 235.14 707.00 241.00
M 725.00 270.00 
C 725.39 273.23 725.30 276.87 725.00 280.00
C 725.00 303.44 715.05 328.44 705.00 349.00
C 701.30 356.57 696.97 364.48 692.00 371.00
C 691.57 361.01 692.78 350.50 694.00 341.00 C 695.22 331.49 696.36 322.53 698.33 313.33 C 700.30 304.12 701.84 296.51 704.33 287.33 C 706.82 278.15 709.34 273.46 712.92 263.92 C 716.51 254.39 728.30 258.39 725.00 270.00
M 626.00 373.00 
C 625.86 375.67 625.31 378.70 624.00 381.00
C 622.56 383.54 619.48 386.59 617.00 388.00
C 615.62 388.78 613.54 389.20 612.00 390.00
C 608.05 392.05 603.65 394.11 599.00 395.00
C 597.87 384.82 601.42 376.80 606.75 368.75 C 612.09 360.71 628.39 360.18 626.00 373.00 Z"/>
</g>
<g fill="#6C7071" fill-opacity="1.00" stroke="None">
<path d="
M 494.00 246.00 
C 491.23 243.59 487.46 239.82 485.00 237.00
C 487.44 240.28 490.67 243.52 494.00 246.00 Z"/>
</g>
<g fill="#7BB97E" fill-opacity="1.00" stroke="None">
<path d="
M 741.00 244.00 
C 739.54 241.71 737.31 239.54 735.00 238.00
C 736.55 239.21 739.75 242.40 741.00 244.00 Z"/>
</g>
<g fill="#C0C4C5" fill-opacity="1.00" stroke="None">
<path d="
M 540.00 245.00 
C 541.90 243.50 543.51 242.01 545.00 240.00
C 543.74 241.45 541.48 243.64 540.00 245.00 Z"/>
</g>
<g fill="#C0C4C5" fill-opacity="1.00" stroke="None">
<path d="
M 600.00 244.00 
C 599.21 243.64 595.51 240.97 595.00 240.00
C 595.93 242.27 597.96 243.28 600.00 244.00 Z"/>
</g>
<g fill="#7BB97E" fill-opacity="1.00" stroke="None">
<path d="
M 698.00 250.00 
C 700.57 247.22 704.11 243.52 707.00 241.00
C 703.68 243.47 700.60 246.71 698.00 250.00 Z"/>
</g>
<g fill="#C0C4C5" fill-opacity="1.00" stroke="None">
<path d="
M 277.00 279.00 
C 277.21 278.74 277.73 278.20 278.00 278.00
C 268.94 265.22 250.61 256.80 243.00 243.00
C 245.92 249.70 254.20 256.02 259.75 261.25 C 265.31 266.48 270.87 274.65 277.00 279.00 Z"/>
</g>
<g fill="#C0C4C5" fill-opacity="0.49" stroke="None">
<path d="
M 704.00 420.00 
C 701.02 412.40 708.24 406.06 712.23 400.23 C 716.22 394.40 719.56 388.11 723.25 382.25 C 726.93 376.38 730.76 368.87 734.08 363.08 C 737.39 357.28 739.73 347.87 743.08 343.08 C 746.43 338.28 747.13 323.77 752.00 323.00
C 740.73 315.32 745.94 298.29 757.00 293.00
C 760.60 285.12 755.25 272.77 754.98 265.02 C 754.70 257.28 747.94 252.22 743.00 247.00
C 749.24 259.01 747.44 278.06 745.99 290.99 C 744.54 303.92 739.88 316.79 735.32 328.32 C 730.76 339.85 726.13 351.56 719.77 361.77 C 713.42 371.98 709.60 382.96 701.75 391.75 C 693.91 400.55 688.96 415.24 704.00 420.00 Z"/>
</g>
<g fill="#4F5253" fill-opacity="1.00" stroke="None">
<path d="
M 567.00 250.00 
C 569.16 250.40 571.79 250.00 574.00 250.00
C 574.07 249.99 574.00 249.00 574.00 249.00
C 572.17 249.04 568.00 250.10 567.00 250.00 Z"/>
</g>
<g fill="#C0C4C5" fill-opacity="1.00" stroke="None">
<path d="
M 574.00 250.00 
C 582.00 250.00 590.00 250.00 598.00 250.00
C 597.93 249.99 598.00 249.00 598.00 249.00
C 590.02 248.84 581.98 248.84 574.00 249.00
C 574.00 249.00 574.07 249.99 574.00 250.00 Z"/>
</g>
<g fill="#6C7071" fill-opacity="1.00" stroke="None">
<path d="
M 598.00 250.00 
C 600.33 250.00 602.67 250.00 605.00 250.00
C 603.30 249.84 600.41 249.05 598.00 249.00
C 598.00 249.00 597.93 249.99 598.00 250.00 Z"/>
</g>
<g fill="#C0C4C5" fill-opacity="1.00" stroke="None">
<path d="
M 523.00 252.00 
C 519.08 252.21 514.92 252.21 511.00 252.00
C 514.96 252.64 518.97 252.65 523.00 252.00 Z"/>
</g>
<g fill="#4BAF4D" fill-opacity="1.00" stroke="None">
<path d="
M 422.00 261.00 
C 408.72 265.84 383.25 274.82 388.00 294.00
C 391.74 309.10 411.08 293.14 420.31 289.31 C 429.53 285.47 448.65 279.23 460.00 279.00
C 464.16 278.50 468.93 278.61 473.00 279.00
C 490.14 280.66 507.61 284.06 518.00 300.00
C 522.51 306.91 525.43 316.65 526.00 325.00
C 527.08 331.05 526.72 338.05 526.00 344.00
C 525.24 382.25 500.37 415.83 461.00 419.00
C 459.37 419.29 457.23 419.94 455.00 420.00
C 451.71 420.09 448.29 420.18 445.00 420.00
C 441.47 419.81 438.57 419.00 435.00 419.00
C 438.09 381.43 445.27 344.20 456.00 309.00
C 456.09 306.18 455.07 302.41 452.00 302.00
C 452.30 300.75 453.83 300.29 454.00 299.00
C 447.20 304.05 426.67 295.70 423.93 308.93 C 421.18 322.15 417.92 328.46 415.00 341.00
C 409.16 366.11 404.05 392.89 403.00 419.00
C 402.93 420.84 402.17 422.82 402.00 424.00
C 401.64 433.06 402.68 439.47 412.00 442.00
C 452.62 453.01 508.15 442.22 535.25 409.25 C 562.35 376.27 570.79 320.84 546.00 285.00
C 544.96 283.91 544.00 282.22 543.00 281.00
C 540.17 278.06 536.85 274.85 534.00 272.00
C 513.67 254.62 483.78 250.41 457.00 253.00
C 446.03 254.06 432.65 257.12 422.00 261.00 Z"/>
</g>
<g fill="#C0C4C5" fill-opacity="0.49" stroke="None">
<path d="
M 705.00 349.00 
C 707.49 337.31 706.28 319.27 711.33 307.33 C 716.38 295.39 715.78 280.43 725.00 271.00
C 725.00 270.50 725.00 270.00 725.00 270.00
C 728.30 258.39 716.51 254.39 712.92 263.92 C 709.34 273.46 706.82 278.15 704.33 287.33 C 701.84 296.51 700.30 304.12 698.33 313.33 C 696.36 322.53 695.22 331.49 694.00 341.00 C 692.78 350.50 691.57 361.01 692.00 371.00
C 696.97 364.48 701.30 356.57 705.00 349.00 Z"/>
</g>
<g fill="#6C7071" fill-opacity="1.00" stroke="None">
<path d="
M 651.00 264.00 
C 652.91 263.52 657.08 263.57 659.00 264.00
C 656.17 262.95 653.90 262.82 651.00 264.00 Z"/>
</g>
<g fill="#7BB97E" fill-opacity="0.59" stroke="None">
<path d="
M 725.00 271.00 
C 725.00 274.00 725.00 277.00 725.00 280.00
C 725.30 276.87 725.39 273.23 725.00 270.00
C 725.00 270.00 725.00 270.50 725.00 271.00 Z"/>
</g>
<g fill="#000000" fill-opacity="0.00" stroke="None">
<path d="
M 705.00 349.00 
C 715.05 328.44 725.00 303.44 725.00 280.00
C 725.00 277.00 725.00 274.00 725.00 271.00
C 715.78 280.43 716.38 295.39 711.33 307.33 C 706.28 319.27 707.49 337.31 705.00 349.00 Z"/>
</g>
<g fill="#7BB97E" fill-opacity="1.00" stroke="None">
<path d="
M 543.00 281.00 
C 540.33 277.74 537.25 274.77 534.00 272.00
C 536.85 274.85 540.17 278.06 543.00 281.00 Z"/>
</g>
<g fill="#C0C4C5" fill-opacity="1.00" stroke="None">
<path d="
M 665.00 279.00 
C 667.82 278.45 670.49 275.52 672.00 273.00
C 670.70 274.84 666.83 277.83 665.00 279.00 Z"/>
</g>
<g fill="#C0C4C5" fill-opacity="1.00" stroke="None">
<path d="
M 664.00 279.00 
C 661.56 279.06 662.74 278.35 663.00 277.00
C 661.64 277.42 660.67 278.80 660.00 280.00
C 661.69 280.46 662.90 279.66 664.00 279.00 Z"/>
</g>
<g fill="#7BB97E" fill-opacity="1.00" stroke="None">
<path d="
M 460.00 279.00 
C 464.33 278.91 468.67 279.07 473.00 279.00
C 468.93 278.61 464.16 278.50 460.00 279.00 Z"/>
</g>
<g fill="#C0C4C5" fill-opacity="0.51" stroke="None">
<path d="
M 463.00 290.00 
C 471.20 286.21 484.99 288.38 493.22 289.78 C 501.46 291.18 512.40 293.25 518.00 300.00
C 507.61 284.06 490.14 280.66 473.00 279.00
C 469.88 280.15 465.49 287.51 463.00 290.00 Z"/>
</g>
<g fill="#C0C4C5" fill-opacity="1.00" stroke="None">
<path d="
M 662.00 283.00 
C 659.77 283.14 657.22 283.23 655.00 283.00
C 657.68 283.62 659.32 283.48 662.00 283.00 Z"/>
</g>
<g fill="#C0C4C5" fill-opacity="0.49" stroke="None">
<path d="
M 412.00 442.00 
C 415.71 445.71 416.66 453.22 424.33 452.67 C 432.00 452.12 437.60 455.28 445.00 455.00 C 452.40 454.72 460.73 455.45 467.99 454.99 C 475.25 454.53 479.95 453.32 486.99 451.99 C 494.04 450.66 497.76 449.72 504.92 446.92 C 512.09 444.13 512.00 443.54 520.30 439.31 C 528.61 435.07 538.96 426.60 545.08 419.08 C 551.21 411.56 550.02 411.63 554.23 405.23 C 558.44 398.83 558.78 396.56 561.23 390.23 C 563.68 383.90 565.53 379.28 566.67 372.67 C 567.81 366.06 569.25 358.90 569.00 352.00 C 568.75 345.10 569.37 336.83 568.78 330.22 C 568.19 323.61 565.62 318.05 563.98 312.02 C 562.33 306.00 559.23 301.86 556.30 296.70 C 553.38 291.53 550.04 289.20 546.00 285.00
C 570.79 320.84 562.35 376.27 535.25 409.25 C 508.15 442.22 452.62 453.01 412.00 442.00 Z"/>
</g>
<g fill="#000000" fill-opacity="0.00" stroke="None">
<path d="
M 463.00 290.00 
C 460.16 292.84 456.11 295.35 454.00 299.00
C 453.83 300.29 452.30 300.75 452.00 302.00
C 455.07 302.41 456.09 306.18 456.00 309.00
C 458.89 313.01 467.78 311.72 465.00 320.00 C 462.22 328.28 463.99 326.69 461.01 336.01 C 458.03 345.33 455.38 358.65 453.07 368.07 C 450.76 377.50 452.09 378.10 450.02 385.02 C 447.96 391.94 449.83 397.03 447.22 402.22 C 444.61 407.41 449.38 416.96 445.00 420.00
C 448.29 420.18 451.71 420.09 455.00 420.00
C 456.39 419.84 459.02 419.16 461.00 419.00
C 500.37 415.83 525.24 382.25 526.00 344.00
C 526.13 337.75 526.42 331.24 526.00 325.00
C 525.43 316.65 522.51 306.91 518.00 300.00
C 512.40 293.25 501.46 291.18 493.22 289.78 C 484.99 288.38 471.20 286.21 463.00 290.00 Z"/>
</g>
<g fill="#4BAF4D" fill-opacity="1.00" stroke="None">
<path d="
M 757.00 293.00 
C 745.94 298.29 740.73 315.32 752.00 323.00
C 753.53 324.04 755.30 324.52 757.00 325.00
C 771.61 329.15 790.33 319.10 785.00 302.00
C 781.49 290.75 766.76 288.33 757.00 293.00 Z"/>
</g>
<g fill="#C0C4C5" fill-opacity="0.50" stroke="None">
<path d="
M 757.00 325.00 
C 760.55 328.58 762.34 336.56 770.00 336.00 C 777.66 335.44 783.41 335.96 789.25 331.25 C 795.08 326.53 795.45 321.21 795.78 314.22 C 796.11 307.23 788.58 305.83 785.00 302.00
C 790.33 319.10 771.61 329.15 757.00 325.00 Z"/>
</g>
<g fill="#C0C4C5" fill-opacity="0.50" stroke="None">
<path d="
M 445.00 420.00 
C 449.38 416.96 444.61 407.41 447.22 402.22 C 449.83 397.03 447.96 391.94 450.02 385.02 C 452.09 378.10 450.76 377.50 453.07 368.07 C 455.38 358.65 458.03 345.33 461.01 336.01 C 463.99 326.69 462.22 328.28 465.00 320.00 C 467.78 311.72 458.89 313.01 456.00 309.00
C 445.27 344.20 438.09 381.43 435.00 419.00
C 438.57 419.00 441.47 419.81 445.00 420.00 Z"/>
</g>
<g fill="#7BB97E" fill-opacity="1.00" stroke="None">
<path d="
M 526.00 344.00 
C 526.72 338.05 527.08 331.05 526.00 325.00
C 526.42 331.24 526.13 337.75 526.00 344.00 Z"/>
</g>
<g fill="#7BB97E" fill-opacity="1.00" stroke="None">
<path d="
M 616.00 341.00 
C 619.61 340.86 623.39 340.80 627.00 341.00
C 623.34 340.41 619.70 340.47 616.00 341.00 Z"/>
</g>
<g fill="#7BB97E" fill-opacity="1.00" stroke="None">
<path d="
M 756.00 341.00 
C 758.69 340.76 762.34 340.55 765.00 341.00
C 761.74 340.01 759.25 340.33 756.00 341.00 Z"/>
</g>
<g fill="#7BB97E" fill-opacity="1.00" stroke="None">
<path d="
M 666.00 350.00 
C 666.33 348.58 666.89 347.01 667.00 345.00
C 666.82 346.12 666.20 348.30 666.00 350.00 Z"/>
</g>
<g fill="#C0C4C5" fill-opacity="1.00" stroke="None">
<path d="
M 397.00 359.00 
C 401.81 355.64 406.17 350.48 410.00 346.00
C 406.14 349.86 399.49 353.90 397.00 359.00 Z"/>
</g>
<g fill="#7BB97E" fill-opacity="1.00" stroke="None">
<path d="
M 584.00 359.00 
C 586.62 356.16 590.11 352.67 593.00 350.00
C 589.73 352.58 586.62 355.68 584.00 359.00 Z"/>
</g>
<g fill="#C0C4C5" fill-opacity="0.50" stroke="None">
<path d="
M 772.00 420.00 
C 771.64 407.50 776.32 392.63 778.02 381.02 C 779.73 369.42 787.97 352.84 772.00 350.00
C 771.97 360.16 765.94 378.67 764.93 387.93 C 763.91 397.19 756.19 422.64 772.00 420.00 Z"/>
</g>
<g fill="#C0C4C5" fill-opacity="0.49" stroke="None">
<path d="
M 616.00 422.00 
C 616.49 422.08 617.00 422.00 617.00 422.00
C 625.13 415.40 637.09 416.68 645.30 408.30 C 653.51 399.92 658.38 394.70 660.00 382.00 C 661.62 369.30 654.58 362.36 647.00 354.00
C 661.26 383.54 630.19 410.07 603.00 412.00
C 603.39 417.98 610.91 421.17 616.00 422.00 Z"/>
</g>
<g fill="#C0C4C5" fill-opacity="1.00" stroke="None">
<path d="
M 386.00 371.00 
C 389.23 367.54 394.82 364.46 397.00 360.00
C 393.27 362.60 388.41 367.04 386.00 371.00 Z"/>
</g>
<g fill="#C0C4C5" fill-opacity="0.49" stroke="None">
<path d="
M 612.00 390.00 
C 610.84 383.52 618.01 372.95 626.00 373.00
C 628.39 360.18 612.09 360.71 606.75 368.75 C 601.42 376.80 597.87 384.82 599.00 395.00
C 603.65 394.11 608.05 392.05 612.00 390.00 Z"/>
</g>
<g fill="#7BB97E" fill-opacity="1.00" stroke="None">
<path d="
M 665.00 395.00 
C 665.00 385.00 665.00 375.00 665.00 365.00
C 664.09 374.36 664.09 385.57 665.00 395.00 Z"/>
</g>
<g fill="#C0C4C5" fill-opacity="1.00" stroke="None">
<path d="
M 371.00 383.00 
C 374.65 386.22 382.41 377.25 385.00 373.00
C 382.37 375.82 374.57 385.02 371.00 383.00 Z"/>
</g>
<g fill="#000000" fill-opacity="0.00" stroke="None">
<path d="
M 612.00 390.00 
C 613.54 389.20 615.62 388.78 617.00 388.00
C 618.60 386.93 622.96 382.54 624.00 381.00
C 625.31 378.70 625.86 375.67 626.00 373.00
C 618.01 372.95 610.84 383.52 612.00 390.00 Z"/>
</g>
<g fill="#7BB97E" fill-opacity="1.00" stroke="None">
<path d="
M 617.00 388.00 
C 619.48 386.59 622.56 383.54 624.00 381.00
C 622.96 382.54 618.60 386.93 617.00 388.00 Z"/>
</g>
<g fill="#7BB97E" fill-opacity="1.00" stroke="None">
<path d="
M 572.00 404.00 
C 571.85 400.02 571.92 395.98 572.00 392.00
C 571.53 395.86 571.44 400.05 572.00 404.00 Z"/>
</g>
<g fill="#7BB97E" fill-opacity="1.00" stroke="None">
<path d="
M 735.00 403.00 
C 735.93 400.82 735.94 398.79 736.00 396.00
C 735.89 397.10 735.46 401.46 735.00 403.00 Z"/>
</g>
<g fill="#7BB97E" fill-opacity="1.00" stroke="None">
<path d="
M 660.00 406.00 
C 661.50 404.89 664.47 403.04 665.00 401.00
C 664.82 401.55 660.69 405.40 660.00 406.00 Z"/>
</g>
<g fill="#C0C4C5" fill-opacity="0.49" stroke="None">
<path d="
M 808.00 405.00 
C 808.00 427.79 771.88 452.48 751.00 443.00
C 757.65 449.15 764.31 457.30 775.00 455.00 C 785.68 452.70 791.33 450.06 798.75 443.75 C 806.18 437.45 810.63 433.12 815.69 425.69 C 820.75 418.27 819.31 401.47 808.00 405.00 Z"/>
</g>
<g fill="#7BB97E" fill-opacity="1.00" stroke="None">
<path d="
M 779.00 416.00 
C 781.95 413.81 784.77 411.00 787.00 408.00
C 784.89 410.42 781.48 413.84 779.00 416.00 Z"/>
</g>
<g fill="#7BB97E" fill-opacity="1.00" stroke="None">
<path d="
M 402.00 424.00 
C 402.17 422.82 402.93 420.84 403.00 419.00
C 402.83 420.18 402.07 422.16 402.00 424.00 Z"/>
</g>
<g fill="#7BB97E" fill-opacity="1.00" stroke="None">
<path d="
M 455.00 420.00 
C 457.23 419.94 459.37 419.29 461.00 419.00
C 459.02 419.16 456.39 419.84 455.00 420.00 Z"/>
</g>
<g fill="#7BB97E" fill-opacity="1.00" stroke="None">
<path d="
M 711.00 420.00 
C 708.69 420.22 706.32 419.83 704.00 420.00
C 706.78 420.88 708.24 420.61 711.00 420.00 Z"/>
</g>
<g fill="#7BB97E" fill-opacity="1.00" stroke="None">
<path d="
M 622.00 423.00 
C 620.89 422.94 618.93 421.77 617.00 422.00
C 617.00 422.00 616.49 422.08 616.00 422.00
C 617.80 422.49 619.53 423.14 622.00 423.00 Z"/>
</g>
<g fill="#C0C4C5" fill-opacity="0.49" stroke="None">
<path d="
M 591.00 438.00 
C 595.12 442.59 597.92 447.09 604.31 449.69 C 610.69 452.30 616.86 454.39 624.00 455.00 C 631.14 455.61 640.56 454.25 646.98 452.98 C 653.39 451.70 659.20 447.48 664.75 445.75 C 670.31 444.03 673.63 435.59 679.00 436.00
C 677.92 434.88 676.83 433.27 676.00 432.00
C 674.65 429.31 673.37 426.69 672.00 424.00
C 651.01 442.21 617.03 454.08 591.00 438.00 Z"/>
</g>
<g fill="#7BB97E" fill-opacity="1.00" stroke="None">
<path d="
M 588.00 436.00 
C 585.85 434.03 583.03 431.20 581.00 429.00
C 583.03 431.58 585.32 433.97 588.00 436.00 Z"/>
</g>
<g fill="#C0C4C5" fill-opacity="0.49" stroke="None">
<path d="
M 686.00 441.00 
C 689.97 445.33 692.12 449.41 697.92 452.08 C 703.73 454.74 710.60 454.88 717.00 455.00 C 723.40 455.11 728.55 451.02 733.92 449.92 C 739.30 448.83 742.10 440.94 747.00 441.00
C 743.25 438.50 740.96 434.11 739.00 430.00
C 724.61 442.62 704.25 450.33 686.00 441.00 Z"/>
</g>
<g fill="#7BB97E" fill-opacity="1.00" stroke="None">
<path d="
M 679.00 436.00 
C 680.25 437.30 682.39 439.02 684.00 440.00
C 681.68 437.83 677.96 434.51 676.00 432.00
C 676.83 433.27 677.92 434.88 679.00 436.00 Z"/>
</g>
</svg>